<svg width="432" height="87" viewBox="0 0 432 87" fill="none" xmlns="http://www.w3.org/2000/svg">
<g clip-path="url(#clip0_9_9)">
<path d="M37.9788 0.926153C37.6963 0.776261 37.7316 0.736934 38.1593 0.725069C38.4557 0.716858 38.6305 0.800192 38.5544 0.913487C38.3903 1.15778 38.4142 1.15726 37.9788 0.926124V0.926153ZM11.3177 3.23507C11.3166 3.19176 11.4747 3.09932 11.6693 3.02946C11.8723 2.9567 11.9657 2.98821 11.8883 3.10336C11.7586 3.29639 11.3225 3.3971 11.3177 3.23508V3.23507ZM5.88196 6.46888C5.87369 6.21962 6.1716 6.0325 6.74845 5.92277C6.99631 5.87566 7.17278 5.95868 7.17762 6.12485C7.18235 6.28004 7.05615 6.40983 6.89765 6.41332C6.73914 6.41653 6.44714 6.47787 6.24876 6.54908C6.05037 6.6203 5.88531 6.58418 5.88196 6.46883V6.46888ZM3.59216 6.59511C3.05698 6.35748 3.10557 6.33801 4.33235 6.29831C5.05449 6.2748 5.64785 6.34244 5.65094 6.44828C5.65316 6.55415 5.52721 6.6503 5.36913 6.66196C5.21107 6.67357 4.87545 6.72055 4.62332 6.76631C4.3712 6.81198 3.90717 6.73501 3.59216 6.59511V6.59511ZM-7.53844 12.4471C-7.53955 12.3986 -7.43897 12.301 -7.31434 12.2302C-7.18968 12.1594 -7.0849 12.1968 -7.0815 12.3133C-7.07781 12.4298 -7.17896 12.5274 -7.3056 12.5302C-7.43225 12.5321 -7.53703 12.4956 -7.53844 12.4471V12.4471ZM418.195 4.0451C418.349 3.98681 418.66 3.97665 418.885 4.02252C419.111 4.06829 418.984 4.116 418.605 4.12838C418.225 4.14079 418.04 4.10334 418.195 4.04516V4.0451ZM420.508 8.00779C420.583 7.93965 420.781 7.92816 420.949 7.98236C421.135 8.04219 421.081 8.09076 420.813 8.10627C420.571 8.12032 420.434 8.0759 420.508 8.00786V8.00779ZM427.704 8.00972C427.449 7.97288 427.135 7.8567 427.005 7.75159C426.761 7.55361 428.066 7.67596 429.2 7.95743C429.707 8.08309 429.678 8.0998 428.973 8.08904C428.53 8.08185 427.958 8.04655 427.704 8.00971V8.00972ZM12.2154 18.2303C12.2143 18.1881 12.471 18.1049 12.786 18.0453C13.1011 17.9858 13.3612 18.0146 13.364 18.1095C13.3662 18.2042 13.1099 18.2875 12.7933 18.2944C12.4767 18.3016 12.2166 18.2726 12.2154 18.2303ZM11.4117 18.3247C11.3302 18.2164 11.3733 18.1254 11.5074 18.1224C11.6415 18.1192 11.7539 18.2071 11.7571 18.3171C11.7593 18.4271 11.7173 18.5182 11.6614 18.5194C11.6055 18.5213 11.4932 18.4329 11.4117 18.3247H11.4117ZM2.25868 18.3403C2.66669 18.1032 3.28299 17.9035 3.62824 17.8966L4.25597 17.8848L3.6464 18.1784C3.31115 18.3398 2.69483 18.5395 2.27684 18.6221L1.51683 18.7722L2.25869 18.3411L2.25868 18.3403ZM12.5841 19.4811C12.5103 19.383 12.715 19.2969 13.0391 19.2898C13.7447 19.2744 13.805 19.3871 13.1756 19.5449C12.9241 19.608 12.6579 19.5793 12.5841 19.4812V19.4811ZM425.641 12.3359C425.633 12.0287 426.197 12.0182 426.561 12.3188C426.71 12.4418 426.59 12.5274 426.22 12.5623C425.861 12.5959 425.646 12.5118 425.641 12.3358L425.641 12.3359ZM14.3846 21.5067C14.3763 21.206 14.8517 21.1155 15.7595 21.2454C16.3898 21.3356 16.4419 21.3705 15.9945 21.403C15.6783 21.426 15.1881 21.504 14.9051 21.5767C14.6202 21.6498 14.3879 21.6186 14.3846 21.5067V21.5067ZM427.722 12.5752C427.718 12.4652 427.819 12.3729 427.946 12.3701C428.073 12.3682 428.179 12.4551 428.182 12.5651C428.186 12.6751 428.084 12.7674 427.958 12.7702C427.831 12.7721 427.725 12.6852 427.722 12.5752ZM430.641 15.8977C430.911 15.7532 431.169 15.7475 431.447 15.8799C431.781 16.0391 431.707 16.0782 431.05 16.0927C430.392 16.1071 430.317 16.0712 430.641 15.8977V15.8977ZM427.393 17.1075C427.389 17.0643 427.544 16.9736 427.733 16.9061C427.921 16.8386 428.077 16.8705 428.08 16.9771C428.084 17.0837 427.931 17.1743 427.741 17.1784C427.551 17.1826 427.394 17.1506 427.393 17.1074V17.1075ZM423.078 19.2826C422.867 19.1706 422.837 19.0926 423.001 19.0872C423.152 19.0821 423.342 19.1667 423.424 19.275C423.608 19.5194 423.528 19.5212 423.078 19.2822V19.2826ZM404.358 23.3597C404.577 23.3048 404.991 23.2938 405.279 23.3355C405.567 23.377 405.388 23.422 404.881 23.4353C404.375 23.4487 404.139 23.4147 404.358 23.3598V23.3597ZM401.768 23.3535C401.765 23.2435 401.866 23.1512 401.993 23.1484C402.119 23.1465 402.226 23.2334 402.229 23.3434C402.232 23.4534 402.131 23.5457 402.004 23.5485C401.878 23.5504 401.771 23.4635 401.768 23.3535V23.3535ZM382.817 23.7494C382.995 23.5872 383.187 23.5813 383.496 23.7285C383.875 23.9085 383.844 23.9364 383.249 23.9548C382.753 23.97 382.637 23.9146 382.817 23.7495V23.7494ZM412.712 23.263C412.611 23.0638 412.277 22.9156 411.927 22.9142C411.592 22.9123 411.452 22.8616 411.617 22.8001C411.781 22.7387 412.372 22.7376 412.93 22.7982C413.683 22.8795 413.913 22.9825 413.824 23.1997C413.758 23.3604 413.606 23.494 413.485 23.4967C413.365 23.4986 413.328 23.4101 413.403 23.2983C413.478 23.1866 413.438 23.0974 413.314 23.1001C413.191 23.102 413.045 23.2186 412.989 23.3574C412.921 23.5288 412.832 23.4986 412.712 23.2634L412.712 23.263ZM44.8923 32.6006C44.8901 32.4906 44.9323 32.3996 44.988 32.3983C45.0438 32.3964 45.1562 32.4847 45.2377 32.593C45.3192 32.7013 45.2761 32.7923 45.142 32.7953C45.0079 32.7985 44.8955 32.7106 44.8923 32.6006H44.8923ZM379.039 27.2774C379.32 27.1139 380.22 27.1714 380.226 27.3533C380.229 27.3954 379.891 27.436 379.479 27.4434C378.971 27.4526 378.83 27.3993 379.039 27.2774V27.2774ZM59.3996 40.1998C59.3973 40.1513 59.499 40.0537 59.6236 39.9829C59.7483 39.9121 59.8531 39.9496 59.8565 40.066C59.8602 40.1825 59.759 40.2801 59.6324 40.2829C59.5057 40.2849 59.401 40.2483 59.3996 40.1998ZM57.5558 40.1784C57.5535 40.0959 57.8095 40.0098 58.1247 39.987C58.4399 39.9643 58.643 40.0274 58.5759 40.1272C58.4284 40.3467 57.5617 40.3902 57.5558 40.1784ZM52.7646 41.8173C52.7624 41.717 52.9838 41.6301 53.2582 41.624C53.5326 41.6179 53.6869 41.6773 53.601 41.7557C53.3584 41.9774 52.7705 42.0207 52.7646 41.8173V41.8173ZM46.7976 42.6339C46.7893 42.3478 48.1053 41.9621 48.68 42.0822C49.1695 42.1846 49.1588 42.2024 48.5175 42.3527C48.1399 42.4412 47.5996 42.5811 47.3169 42.6635C47.0341 42.746 46.8005 42.7326 46.7976 42.634V42.6339ZM44.9535 42.6073C44.6535 42.448 44.661 42.4192 45.0053 42.409C45.2269 42.4018 45.4108 42.487 45.414 42.5971C45.4211 42.8411 45.3951 42.8417 44.9535 42.6074L44.9535 42.6073ZM43.1199 42.9415C43.1152 42.78 43.2667 42.6443 43.4567 42.6402C43.6467 42.6361 43.8045 42.7129 43.8073 42.8112C43.8095 42.9094 43.6586 43.0451 43.4705 43.1126C43.2621 43.1874 43.1251 43.1197 43.1199 42.9415V42.9415ZM41.9775 43.2732C41.9752 43.1631 42.0753 43.0708 42.2019 43.0681C42.3285 43.0661 42.4348 43.153 42.438 43.263C42.4402 43.373 42.3402 43.4654 42.2135 43.4681C42.0869 43.4701 41.9807 43.3832 41.9775 43.2732V43.2732ZM37.8384 43.5643C37.8362 43.4543 37.9301 43.3622 38.0493 43.3595C38.1685 43.3576 38.3326 43.4434 38.4141 43.5517C38.4956 43.66 38.4008 43.7521 38.2033 43.7565C38.0058 43.7606 37.8416 43.6744 37.8384 43.5643ZM408.642 35.6916C408.716 35.6234 408.915 35.612 409.083 35.6662C409.268 35.726 409.215 35.7746 408.947 35.7901C408.705 35.8041 408.567 35.7598 408.642 35.6917V35.6916ZM34.7711 44.309C34.6461 44.0462 34.7593 44.0022 35.4308 44.0553C35.8768 44.0906 36.2399 44.0572 36.2377 43.983C36.2355 43.9079 36.4396 43.7948 36.6912 43.7317C36.9886 43.6571 37.1516 43.7153 37.1569 43.8983C37.1617 44.053 36.9324 44.2001 36.648 44.2252C36.3636 44.2503 35.9757 44.2847 35.7859 44.3017C35.5961 44.3187 35.3242 44.3987 35.1816 44.4797C35.0381 44.5612 34.8548 44.4849 34.7711 44.309V44.309ZM32.9242 44.712C32.7745 44.5884 32.9988 44.2712 33.2395 44.2659C33.3451 44.264 33.4881 44.3806 33.5571 44.5258C33.6739 44.7714 33.1741 44.9184 32.9242 44.712V44.712ZM31.321 44.9224C31.2451 44.8216 31.2761 44.6863 31.3896 44.6218C31.5033 44.5574 31.6596 44.6376 31.737 44.8005C31.8896 45.1214 31.5463 45.222 31.3209 44.9224H31.321ZM404.472 37.0662C404.468 36.9687 404.882 36.901 405.389 36.9159C405.896 36.9306 406.313 37.0013 406.315 37.073C406.319 37.1446 405.905 37.2122 405.398 37.2234C404.892 37.2346 404.475 37.1637 404.472 37.0662V37.0662ZM29.6323 45.3656C29.3887 45.2421 29.4066 45.1781 29.716 45.0671C30.1857 44.8986 30.451 45.0578 30.1536 45.3296C30.0373 45.4358 29.8027 45.452 29.6322 45.3656L29.6323 45.3656ZM28.2167 45.4773C28.212 45.3122 28.2487 45.1763 28.2984 45.1752C28.3482 45.1733 28.4525 45.3069 28.5302 45.4703C28.6079 45.6338 28.5712 45.7697 28.4484 45.7724C28.3258 45.7743 28.2215 45.6423 28.2167 45.4773H28.2167ZM26.2594 45.8087C26.0852 45.5771 26.6702 45.466 27.2989 45.6111C27.6179 45.6847 27.7757 45.7638 27.6497 45.7867C26.8849 45.9257 26.3538 45.9341 26.2594 45.8087V45.8087ZM23.8626 46.2949C23.8604 46.1967 24.0113 46.0611 24.1994 45.9936C24.4078 45.9188 24.5449 45.9864 24.5501 46.1646C24.5548 46.3262 24.4032 46.4618 24.2132 46.466C24.0232 46.4701 23.8655 46.3932 23.8626 46.2949V46.2949ZM22.5905 46.5956C22.1407 46.3032 22.1408 46.2998 22.5964 46.3403C22.8505 46.3628 23.1961 46.3021 23.3643 46.2053C23.6125 46.0625 23.6232 46.1104 23.4213 46.4592C23.1242 46.9722 23.1605 46.9662 22.5903 46.5956H22.5905ZM21.2191 46.7232C21.1412 46.6197 21.2908 46.5302 21.5515 46.5245C22.1075 46.5123 22.1668 46.6223 21.6955 46.7914C21.5114 46.8575 21.297 46.8267 21.2191 46.7233V46.7232ZM20.1953 46.9602C20.187 46.689 20.5917 46.5116 20.7471 46.7181C20.8214 46.8168 20.7287 46.9526 20.5414 47.0199C20.354 47.0871 20.1982 47.0602 20.1953 46.9602V46.9602ZM19.9853 47.6598C19.8205 47.496 19.7917 47.3638 19.9202 47.361C20.0469 47.3591 20.2834 47.4881 20.4459 47.6497C20.6107 47.8135 20.6395 47.9457 20.511 47.9485C20.3843 47.9504 20.1478 47.8214 19.9853 47.6598V47.6598ZM403.785 39.473C403.553 39.277 403.264 39.1723 403.144 39.2405C403.024 39.3087 402.923 39.2745 402.92 39.1645C402.909 38.8091 403.289 38.7382 403.742 39.0109C404.026 39.1818 404.316 39.2117 404.553 39.0945C404.792 38.9766 405.079 39.0085 405.366 39.185C405.783 39.442 405.776 39.4515 405.253 39.3488C404.9 39.2796 404.607 39.3468 404.452 39.5346C404.241 39.788 404.147 39.7794 403.785 39.473V39.473ZM18.8711 48.2848C18.884 47.9054 19.2493 47.2589 19.2718 47.5754C19.2837 47.7403 19.1967 48.0124 19.0788 48.1802C18.9608 48.3479 18.8674 48.395 18.8711 48.2848ZM406.181 40.382C406.178 40.3335 406.281 40.2359 406.406 40.1651C406.53 40.0943 406.635 40.1317 406.638 40.2483C406.642 40.3648 406.541 40.4624 406.414 40.4652C406.288 40.4671 406.183 40.4306 406.181 40.382V40.382ZM11.0489 49.3693C11.0452 49.2528 11.1463 49.1552 11.273 49.1524C11.3996 49.1505 11.5044 49.187 11.5058 49.2355C11.5069 49.2841 11.4063 49.3816 11.2817 49.4524C11.157 49.5232 11.0522 49.4858 11.0489 49.3693V49.3693ZM401.754 41.6606C401.665 41.4742 401.747 41.428 402.021 41.5102C402.351 41.6093 402.367 41.5795 402.121 41.3292C401.753 40.9546 401.929 40.775 402.543 40.9001C402.91 40.975 402.947 41.0385 402.711 41.1922C402.495 41.3324 402.556 41.3571 402.924 41.2786C403.207 41.2182 403.442 41.2502 403.445 41.3499C403.448 41.4497 403.423 41.5318 403.391 41.5326C403.358 41.5326 403.006 41.623 402.607 41.7318C402.059 41.8815 401.851 41.8641 401.754 41.6607V41.6606ZM5.0919 50.5318C5.08969 50.4452 5.29416 50.3563 5.54698 50.3341C5.79978 50.312 6.00909 50.3783 6.01211 50.4815C6.01432 50.5846 5.81033 50.6736 5.55703 50.6792C5.30373 50.6854 5.09443 50.6184 5.0919 50.5318V50.5318ZM4.17541 50.7096C4.1732 50.5996 4.32502 50.5061 4.51499 50.5019C4.70495 50.4978 4.86301 50.5844 4.86621 50.6944C4.86843 50.8044 4.71662 50.8978 4.52664 50.902C4.33667 50.9061 4.17861 50.8196 4.17541 50.7096ZM28.3009 58.2532C28.4576 58.1942 28.7166 58.1885 28.8766 58.2406C29.0365 58.2925 28.9084 58.3408 28.5916 58.3478C28.275 58.355 28.1442 58.3122 28.3009 58.2533V58.2532ZM24.1315 59.4782C24.05 59.3699 24.1448 59.2778 24.3423 59.2734C24.5398 59.2693 24.7039 59.3555 24.7071 59.4656C24.7094 59.5756 24.6155 59.6677 24.4963 59.6704C24.3771 59.6723 24.213 59.5865 24.1315 59.4782ZM19.2024 62.4577C19.3566 62.3994 19.6674 62.3893 19.8929 62.4351C20.1184 62.4809 19.9922 62.5285 19.6124 62.541C19.2326 62.5533 19.048 62.516 19.2024 62.4577V62.4577ZM25.9542 64.7045C25.323 64.576 25.4683 64.2964 26.1179 64.3896C26.436 64.4352 26.6987 64.552 26.7015 64.6492C26.7074 64.834 26.6212 64.8404 25.9542 64.7046V64.7045ZM27.9233 65.0669C27.5183 64.9352 27.549 64.6073 27.9673 64.5981C28.1573 64.594 28.3166 64.7255 28.3214 64.8905C28.3262 65.0556 28.3041 65.1841 28.2722 65.1761C28.2403 65.1678 28.0833 65.119 27.9233 65.0669ZM23.0456 65.7071C23.0434 65.5971 23.0855 65.506 23.1413 65.5048C23.1971 65.5029 23.3096 65.5912 23.391 65.6995C23.4725 65.8078 23.4294 65.8988 23.2953 65.9017C23.1612 65.9049 23.0489 65.8171 23.0456 65.7071H23.0456ZM395.903 69.1867C396.06 69.1277 396.319 69.1221 396.479 69.1741C396.639 69.226 396.51 69.2743 396.194 69.2813C395.877 69.2885 395.746 69.2457 395.903 69.1867V69.1867ZM393.036 69.4615C393.11 69.3934 393.309 69.3819 393.476 69.4361C393.662 69.4959 393.609 69.5445 393.341 69.56C393.098 69.574 392.961 69.5297 393.036 69.4616V69.4615ZM-1.64514 78.1386C-1.5706 78.0705 -1.37216 78.059 -1.20425 78.1132C-1.0187 78.173 -1.07188 78.2216 -1.33986 78.2371C-1.58234 78.2511 -1.71972 78.2068 -1.64514 78.1387V78.1386ZM389.984 69.6648C389.98 69.5821 390.464 69.4878 391.056 69.4553C391.649 69.4228 392.089 69.4371 392.034 69.4869C391.85 69.6551 389.988 69.8167 389.984 69.6649V69.6648ZM-0.263232 78.2831C-0.95102 78.0914 -0.462256 77.897 0.803552 77.8588C1.72812 77.8309 2.20944 77.9016 2.29308 78.0774C2.3857 78.2722 2.11735 78.3407 1.2219 78.3507C0.564791 78.3579 -0.103528 78.3276 -0.263232 78.2832V78.2831ZM1.32448 79.3952C1.32226 79.2852 1.48019 79.1916 1.67764 79.1873C1.87509 79.1832 1.97522 79.2708 1.90016 79.3826C1.82502 79.4943 1.66616 79.5879 1.54698 79.5905C1.42781 79.5924 1.32769 79.5052 1.32448 79.3952ZM12.2823 81.8186C12.5024 81.7634 12.8651 81.7554 13.0882 81.8009C13.3113 81.8464 13.1312 81.8916 12.6879 81.9013C12.2446 81.9116 12.0621 81.8739 12.2823 81.8187V81.8186ZM331.956 84.6143C332.03 84.5462 332.229 84.5347 332.397 84.5889C332.582 84.6487 332.529 84.6973 332.261 84.7128C332.019 84.7269 331.881 84.6825 331.956 84.6144V84.6143ZM348.936 84.3385C348.93 84.1249 351.992 84.0788 352.967 84.2778C353.429 84.3722 352.871 84.4358 351.302 84.4675C350.004 84.4936 348.939 84.4356 348.936 84.3385V84.3385ZM345.14 84.4422C345.216 84.3286 345.394 84.2944 345.536 84.3662C345.702 84.4503 345.738 84.3792 345.637 84.1671C345.465 83.8057 346.02 83.6782 346.277 84.0201C346.359 84.1284 346.808 84.2189 347.276 84.2214L348.127 84.2254L347.21 84.4112C345.912 84.6745 344.974 84.6884 345.14 84.442V84.4422ZM339.33 84.6524C339.405 84.5842 339.603 84.5727 339.771 84.6269C339.957 84.6867 339.904 84.7353 339.636 84.7508C339.393 84.7649 339.256 84.7206 339.33 84.6524V84.6524ZM403.747 83.3571C403.743 83.2471 403.845 83.1548 403.971 83.152C404.098 83.1501 404.204 83.237 404.207 83.347C404.211 83.457 404.109 83.5493 403.983 83.5521C403.856 83.554 403.75 83.4671 403.747 83.3571V83.3571ZM29.7124 1.90833C29.7102 1.79832 29.6091 1.71044 29.4899 1.71306C29.3707 1.71499 29.2118 1.80922 29.1367 1.92101C29.0617 2.03273 29.1616 2.1206 29.3592 2.11626C29.5567 2.11215 29.7156 2.01836 29.7124 1.90833V1.90833ZM30.6568 2.68821C30.6546 2.5782 30.4955 2.49159 30.3055 2.49578C30.1156 2.49988 29.9628 2.59338 29.966 2.7034C29.9682 2.81341 30.1272 2.90001 30.3172 2.89583C30.5072 2.89173 30.66 2.79824 30.6568 2.68821V2.68821ZM27.4605 3.70382C27.4583 3.61135 27.5536 3.58529 27.6733 3.64605C27.7931 3.7068 27.9535 3.6634 28.0298 3.54999C28.2234 3.26172 27.8648 3.29997 26.9674 3.66332C26.2296 3.96202 26.2246 3.97169 26.8333 3.92287C27.181 3.89497 27.4632 3.79647 27.4605 3.70395V3.70382ZM378.686 6.13387C378.682 6.08534 378.58 6.04798 378.453 6.05075C378.326 6.05268 378.225 6.15112 378.229 6.26765C378.233 6.38417 378.337 6.42158 378.462 6.35078C378.586 6.27997 378.687 6.1824 378.686 6.13389V6.13387ZM17.3347 16.5733C17.3967 16.5166 17.0793 16.4568 16.6294 16.4404C16.1001 16.421 15.8669 16.4843 15.9686 16.6195C16.1195 16.8201 17.101 16.7869 17.3347 16.5732V16.5733ZM14.243 16.6449C14.2408 16.5501 14.084 16.5278 13.8959 16.5953C13.7078 16.6628 13.5561 16.7956 13.5589 16.8903C13.5611 16.9852 13.7178 17.0075 13.906 16.94C14.0941 16.8725 14.2457 16.7397 14.243 16.6449ZM20.4749 17.0116C20.4727 16.9631 20.3108 16.927 20.1134 16.9314C19.9159 16.9355 19.8221 17.0293 19.9049 17.1394C20.0417 17.3212 20.4811 17.2228 20.4749 17.0117V17.0116ZM21.432 17.145C21.2645 17.1005 21.0207 17.1616 20.8902 17.2808C20.7237 17.433 20.8144 17.4571 21.1948 17.3616C21.5041 17.284 21.6059 17.1911 21.432 17.1449V17.145ZM24.4449 18.8259C24.4412 18.7094 24.3367 18.672 24.212 18.7428C24.0873 18.8136 23.9865 18.9111 23.9879 18.9596C23.9901 19.0082 24.0941 19.0456 24.2208 19.0428C24.3474 19.0408 24.4482 18.9424 24.4449 18.8259V18.8259ZM423.049 10.3628C423.045 10.3142 422.943 10.2769 422.816 10.2797C422.689 10.2816 422.589 10.38 422.592 10.4965C422.596 10.6131 422.7 10.6505 422.825 10.5797C422.949 10.5089 423.05 10.4113 423.049 10.3628V10.3628ZM421.246 11.7364C421.242 11.6404 421.032 11.5194 420.777 11.4674C420.522 11.4154 420.316 11.4602 420.319 11.5661C420.323 11.6723 420.203 11.6976 420.055 11.6223C419.906 11.547 419.847 11.5678 419.922 11.6685C420.101 11.9057 421.252 11.9648 421.246 11.7364V11.7364ZM423.059 11.8982C423.278 11.7709 423.172 11.6997 422.686 11.6486C421.871 11.5629 421.423 11.6784 421.609 11.9245C421.779 12.1505 422.653 12.1346 423.059 11.8983V11.8982ZM35.6948 21.3926C35.6133 21.2843 35.4233 21.1998 35.2725 21.2048C35.1078 21.211 35.1385 21.2882 35.3494 21.4002C35.799 21.6388 35.8788 21.6371 35.6948 21.393L35.6948 21.3926ZM417.233 14.8693C417.065 14.8152 416.866 14.8266 416.792 14.8948C416.717 14.9629 416.855 15.0072 417.097 14.9932C417.365 14.9778 417.418 14.9291 417.233 14.8693L417.233 14.8693ZM421.354 15.4617C421.555 15.39 421.438 15.339 421.07 15.3378C420.589 15.3359 420.478 15.4089 420.592 15.6496C420.675 15.8221 420.802 15.8778 420.877 15.7734C420.951 15.6689 421.166 15.5287 421.354 15.4617ZM376 23.1818C375.832 23.1276 375.633 23.1391 375.559 23.2073C375.484 23.2754 375.622 23.3197 375.864 23.3057C376.132 23.2903 376.185 23.2415 376 23.1818V23.1818ZM371.018 22.8818C370.939 22.817 370.888 22.9364 370.905 23.147C370.923 23.3798 370.978 23.426 371.047 23.2648C371.11 23.1189 371.096 22.9466 371.018 22.8818H371.018ZM372.947 23.4007C373.218 23.2435 373.207 23.1646 372.875 22.8907C372.659 22.7125 372.485 22.6631 372.489 22.781C372.492 22.8988 372.34 22.9987 372.15 23.0028C371.79 23.01 371.7 23.2495 371.971 23.4738C372.187 23.6516 372.564 23.6233 372.947 23.4007L372.947 23.4007ZM374.594 23.8712C374.589 23.718 374.755 23.5321 374.961 23.4582C375.471 23.2749 375.282 23.1662 374.245 23.0463L373.368 22.9449L373.804 23.5514C374.268 24.1947 374.608 24.3324 374.594 23.8713V23.8712ZM377.114 24.1239C376.771 24.0298 376.604 24.2396 376.807 24.5098C376.936 24.6811 377.029 24.6695 377.168 24.4651C377.277 24.3032 377.255 24.1624 377.114 24.1238V24.1239ZM348.387 25.9773C348.383 25.8947 347.967 25.8159 347.46 25.8021C346.953 25.7883 346.541 25.8648 346.545 25.9723C346.548 26.0798 346.965 26.1586 347.471 26.1475C347.978 26.1363 348.39 26.0597 348.387 25.9773V25.9773ZM353.458 26.004C353.454 25.8875 353.35 25.8501 353.225 25.9209C353.101 25.9917 353 26.0893 353.001 26.1378C353.005 26.1863 353.107 26.2237 353.234 26.2209C353.361 26.219 353.461 26.1205 353.458 26.004V26.004ZM356.688 26.8168C356.74 26.7765 356.118 26.7687 355.305 26.7996C354.175 26.8426 353.992 26.8861 354.523 26.9853C355.152 27.1024 356.453 27.0011 356.688 26.8168V26.8168ZM358.231 27.7123C358.306 27.6006 358.206 27.5127 358.009 27.5171C357.811 27.5212 357.652 27.615 357.656 27.725C357.659 27.835 357.759 27.9229 357.878 27.9203C357.997 27.9184 358.156 27.8241 358.231 27.7123ZM58.9458 38.9593C58.7779 38.9051 58.5795 38.9166 58.5049 38.9847C58.4304 39.0529 58.5678 39.0972 58.8102 39.0832C59.0782 39.0678 59.1314 39.0191 58.9458 38.9593V38.9593ZM59.3592 41.9434C59.2807 41.8786 59.2297 41.998 59.2459 42.2086C59.2638 42.4414 59.3196 42.4876 59.3886 42.3264C59.4509 42.1805 59.4377 42.0082 59.3593 41.9434H59.3592ZM41.0619 43.4806C41.0582 43.3641 40.9537 43.3267 40.829 43.3975C40.7044 43.4683 40.6035 43.5659 40.6049 43.6144C40.6072 43.6629 40.7111 43.7004 40.8378 43.6975C40.9644 43.6956 41.0653 43.5971 41.0619 43.4806V43.4806ZM39.6861 43.711C39.6824 43.5945 39.5779 43.5571 39.4532 43.6279C39.3286 43.6987 39.2277 43.7963 39.2291 43.8448C39.2314 43.8934 39.3353 43.9307 39.462 43.9279C39.5886 43.926 39.6895 43.8276 39.6861 43.711V43.711ZM45.2271 44.0896C45.2249 44.0411 45.1209 44.0037 44.9943 44.0065C44.8676 44.0084 44.7668 44.1068 44.7702 44.2234C44.7739 44.3399 44.8784 44.3773 45.003 44.3065C45.1277 44.2357 45.2285 44.1381 45.2271 44.0896V44.0896ZM40.4302 44.6146C40.4751 44.158 40.3221 43.5982 40.102 43.4134C39.9491 43.2852 39.9288 43.4063 40.0427 43.7673C40.1834 44.2132 40.148 44.2953 39.8542 44.2047C39.5958 44.1249 39.5058 44.2066 39.539 44.494C39.587 44.9074 40.3907 45.0162 40.4302 44.6146H40.4302ZM22.9993 48.2975C22.9971 48.2156 22.7372 48.1972 22.4221 48.2568C22.0517 48.3268 21.8465 48.2742 21.8417 48.1084C21.838 47.9672 21.7694 47.911 21.69 47.9835C21.4257 48.2251 22.099 48.6734 22.5546 48.5591C22.8016 48.4973 23.0017 48.3795 22.9993 48.2976V48.2975ZM20.9921 48.6049C20.8322 48.553 20.5731 48.5587 20.4164 48.6176C20.2598 48.6766 20.3906 48.7191 20.7072 48.7122C21.0239 48.705 21.152 48.657 20.9921 48.605V48.6049ZM32.2703 57.4468C32.2786 57.2464 32.3058 57.2458 32.4046 57.4436C32.4725 57.5797 32.6291 57.6888 32.7527 57.6861C32.8763 57.6842 32.92 57.6049 32.8499 57.5118C32.7185 57.337 34.8108 57.0425 36.478 57.001C36.9976 56.9876 37.6568 56.9176 37.9427 56.8441C38.4057 56.7254 38.421 56.6857 38.0825 56.4819C37.8372 56.3342 37.2989 56.3069 36.5661 56.405C35.9412 56.4887 35.3748 56.4839 35.3074 56.3943C35.2401 56.3047 34.7248 56.2416 34.1623 56.2539C33.5999 56.2662 33.1374 56.1975 33.1346 56.1008C33.1324 56.0043 32.7938 55.9699 32.3835 56.0244C31.9732 56.0789 31.224 56.1643 30.7185 56.2142C30.213 56.2641 29.6454 56.3559 29.4572 56.4182C29.2689 56.4805 28.5069 56.5997 27.7639 56.683C25.6929 56.915 25.3655 57.2346 27.2334 57.2008C28.1784 57.1839 28.7855 57.0896 28.7817 56.9609C28.778 56.8444 28.9042 56.8143 29.0614 56.894C29.2186 56.9737 29.7642 57.0167 30.2738 56.9895C31.0583 56.9477 31.113 56.9681 30.6298 57.1226C30.1125 57.2879 30.14 57.3052 30.9231 57.306C31.3984 57.306 31.7898 57.397 31.7931 57.507C31.8013 57.7997 32.2575 57.7419 32.2703 57.4465L32.2703 57.4468ZM35.9472 57.7376C35.9413 57.5479 35.2496 57.4674 35.1318 57.6428C35.0601 57.7497 35.2146 57.8324 35.4754 57.8267C35.7362 57.8205 35.9485 57.7809 35.9472 57.7376V57.7376ZM38.988 57.8128C38.8201 57.7587 38.6217 57.7702 38.5471 57.8383C38.4725 57.9065 38.61 57.9508 38.8524 57.9367C39.1204 57.9213 39.1736 57.8726 38.988 57.8128V57.8128ZM40.6759 57.9125C40.5943 57.8042 40.3723 57.719 40.1823 57.7232C39.9924 57.7273 39.9036 57.8193 39.9851 57.9277C40.0666 58.036 40.2886 58.1212 40.4786 58.117C40.6685 58.1129 40.7573 58.0208 40.6759 57.9125V57.9125ZM34.164 58.3192C33.9961 58.2651 33.7977 58.2766 33.7231 58.3447C33.6486 58.4129 33.786 58.4571 34.0284 58.4431C34.2964 58.4277 34.3496 58.379 34.164 58.3192V58.3192ZM27.1599 60.6116C27.2349 60.4998 27.1928 60.4107 27.0661 60.4135C26.9395 60.4154 26.7744 60.5099 26.6994 60.6217C26.6244 60.7334 26.6666 60.8226 26.7932 60.8198C26.9199 60.8179 27.0849 60.7233 27.16 60.6116H27.1599ZM29.7345 60.8943C29.8204 60.8159 29.6661 60.7566 29.3917 60.7627C29.1173 60.7688 28.9154 60.6615 28.9431 60.5245C28.9764 60.3593 28.7614 60.3032 28.3046 60.3578C27.3467 60.4725 27.3361 60.5463 28.2344 60.8482C29.0513 61.1227 29.4704 61.1356 29.7344 60.8943L29.7345 60.8943ZM37.1076 62.5446C37.2199 62.4595 37.139 62.3938 36.9279 62.3984C36.7145 62.4035 36.5502 62.5623 36.5578 62.7568C36.5661 62.9566 36.6429 63.0193 36.7376 62.903C36.8289 62.7909 36.9954 62.6296 37.1076 62.5446ZM41.6304 62.9956C41.6257 62.8306 41.4535 62.6992 41.2481 62.7038C40.9421 62.7109 40.9279 62.7651 41.1699 63.0057C41.3324 63.1673 41.5044 63.2986 41.5522 63.2976C41.6 63.2957 41.6352 63.1606 41.6304 62.9956H41.6304ZM30.0983 64.2721C29.9305 64.1228 29.7434 64.0684 29.6824 64.1511C29.6215 64.2339 29.4177 64.3564 29.2295 64.4234C29.0414 64.4904 29.2295 64.5448 29.6454 64.5443C30.2816 64.5443 30.3543 64.4999 30.0983 64.2721ZM31.7665 64.5053C31.0861 64.3714 30.8377 64.4832 31.2976 64.7164C31.4751 64.8064 31.7836 64.8213 31.9831 64.7496C32.2614 64.6497 32.2109 64.5927 31.7665 64.5053V64.5053ZM54.9738 64.091C54.8947 64.0256 54.7119 64.1851 54.5677 64.4454C54.317 64.8979 54.3234 64.9031 54.7116 64.5643C54.935 64.3693 55.053 64.1563 54.9738 64.091V64.091ZM50.0964 64.9112C50.0149 64.8029 49.9026 64.7153 49.8467 64.7165C49.7909 64.7184 49.7479 64.8088 49.751 64.9187C49.7533 65.0288 49.8666 65.1164 50.0007 65.1134C50.1349 65.1102 50.1779 65.0194 50.0964 64.9112H50.0964ZM46.8785 65.1821C46.797 65.0738 46.607 64.9893 46.4562 64.9942C46.2915 65.0004 46.3221 65.0777 46.5331 65.1897C46.9827 65.4283 47.0624 65.4265 46.8785 65.1825L46.8785 65.1821ZM32.9472 65.4884C32.945 65.3783 32.8317 65.2907 32.6975 65.2937C32.5634 65.2969 32.5203 65.3877 32.6018 65.496C32.6833 65.6042 32.7957 65.6918 32.8515 65.6906C32.9074 65.6887 32.9504 65.5983 32.9472 65.4884H32.9472ZM38.4397 66.2365C38.5465 66.2907 39.7715 66.3606 41.1618 66.392C43.0365 66.4343 43.5096 66.4002 42.9928 66.2604C42.6096 66.1566 41.7247 66.0362 41.0265 65.9928C40.3282 65.9494 39.4077 65.8274 38.9809 65.7217C38.554 65.616 37.5659 65.5109 36.7851 65.4881C36.0042 65.4654 35.365 65.4338 35.3645 65.418C35.3645 65.4022 34.8712 65.388 34.2691 65.3863C33.6671 65.3844 33.1764 65.4466 33.1787 65.5239C33.1846 65.7277 34.7869 66.0455 35.728 66.0295C36.1713 66.0224 36.7966 66.1292 37.1174 66.2677C37.4862 66.427 37.801 66.4494 37.9732 66.3288C38.123 66.2239 38.3329 66.1824 38.4397 66.2364V66.2365ZM418.975 58.8664C418.807 58.8122 418.609 58.8237 418.534 58.8918C418.46 58.96 418.597 59.0043 418.84 58.9902C419.108 58.9748 419.161 58.9262 418.975 58.8663V58.8664ZM32.59 67.5612C32.4221 67.5071 32.2237 67.5185 32.1491 67.5867C32.0745 67.6548 32.2119 67.6991 32.4544 67.6851C32.7224 67.6697 32.7755 67.621 32.59 67.5612V67.5612ZM23.611 69.2922C23.6039 69.0605 21.8389 69.064 21.683 69.2963C21.6241 69.384 22.035 69.4632 22.5963 69.4721C23.1575 69.4813 23.6141 69.4001 23.611 69.2925V69.2922ZM384.626 69.0681C384.786 68.9219 382.658 68.987 381.616 69.1602C381.143 69.2388 380.758 69.3635 380.76 69.4371C380.765 69.5858 384.443 69.2345 384.626 69.0681V69.0681ZM380.425 69.4158C380.514 69.334 378.545 69.4036 377.767 69.5097C377.704 69.5179 377.788 69.5962 377.955 69.6828C378.252 69.8374 380.193 69.6276 380.425 69.4158V69.4158ZM405.999 69.5053C405.921 69.4017 405.707 69.371 405.523 69.4372C405.051 69.6063 405.111 69.7163 405.667 69.7041C405.928 69.6979 406.077 69.609 405.999 69.5054V69.5053ZM91.622 86.4225C91.6198 86.3159 91.4624 86.284 91.2743 86.3515C91.0862 86.419 90.9333 86.5096 90.9346 86.5528C90.9368 86.5961 91.0923 86.628 91.2822 86.6238C91.4722 86.6197 91.6251 86.529 91.622 86.4225V86.4225ZM173.239 85.8228C173.166 85.6042 173.015 85.4274 172.903 85.4299C172.665 85.435 172.644 85.9086 172.873 86.0977C173.182 86.3533 173.369 86.2134 173.239 85.8228H173.239ZM400.994 82.2803C400.826 82.2262 400.627 82.2377 400.553 82.3058C400.478 82.3739 400.616 82.4182 400.858 82.4042C401.126 82.3888 401.179 82.3402 400.994 82.2803V82.2803ZM384.502 83.18C384.42 83.0717 384.308 82.9841 384.252 82.9853C384.196 82.9872 384.153 83.0776 384.156 83.1876C384.16 83.2976 384.272 83.3852 384.406 83.3822C384.54 83.379 384.583 83.2882 384.502 83.18H384.502ZM386.186 84.2126C386.1 84.1416 385.225 84.0697 384.241 84.0529C382.504 84.0231 375.604 83.9846 374.56 83.9988C374.275 84.0029 374.04 83.9265 374.037 83.8293C374.033 83.7274 373.653 83.7356 373.135 83.8491C372.499 83.9882 371.97 83.9691 371.311 83.7832C370.801 83.6392 370.345 83.5563 370.298 83.599C370.154 83.731 366.911 83.749 361.359 83.6486C361.168 83.6454 360.861 83.5454 360.674 83.4269C360.431 83.272 360.38 83.2726 360.494 83.4289C360.597 83.5696 360.412 83.6444 359.969 83.6406C359.593 83.6374 359.283 83.5566 359.28 83.4613C359.276 83.3659 359.069 83.3395 358.817 83.4026C358.565 83.4658 358.357 83.4465 358.355 83.3598C358.347 83.0923 355.567 83.3233 355.376 83.6071C355.253 83.7907 355.153 83.8031 355.037 83.6492C354.83 83.3736 353.517 83.39 353.525 83.668C353.529 83.8102 353.391 83.8137 353.083 83.6798C352.757 83.5372 352.61 83.5521 352.542 83.7347C352.476 83.9137 352.305 83.8796 351.944 83.6151C351.634 83.3877 351.442 83.3392 351.446 83.4895C351.451 83.6477 351.279 83.6902 350.96 83.6098C350.631 83.5269 350.521 83.5574 350.629 83.7014C350.723 83.8261 350.664 83.882 350.489 83.8339C350.323 83.7882 349.563 83.7122 348.801 83.6652C348.04 83.6182 347.105 83.5539 346.724 83.5222C346.058 83.4669 344.778 83.9762 344.787 84.2927C344.791 84.3767 344.531 84.3487 344.211 84.2308C343.761 84.0643 343.687 83.9549 343.88 83.742C344.047 83.5573 344.049 83.4695 343.886 83.473C343.752 83.4763 343.587 83.6455 343.519 83.8497C343.412 84.1715 343.188 84.2164 341.843 84.1863C338.175 84.1044 330.86 84.3839 330.707 84.6117C330.516 84.8968 328.401 84.8758 328.183 84.5867C328.077 84.4459 327.869 84.4596 327.523 84.6301C327.201 84.7893 325.546 84.9295 322.937 85.0185C320.692 85.0952 318.736 85.2257 318.59 85.3088C318.443 85.3918 318.321 85.3645 318.317 85.248C318.309 84.9861 317.005 84.9939 316.828 85.2573C316.75 85.3745 316.42 85.3703 315.974 85.2463C315.451 85.1005 315.138 85.1074 314.853 85.2711C314.635 85.3959 314.391 85.4432 314.31 85.3762C314.115 85.215 301.946 85.5843 301.639 85.7607C301.267 85.9743 300.841 86.0017 300.705 85.8208C300.637 85.7302 300.248 85.7469 299.841 85.858C299.361 85.9892 299.073 85.9903 299.019 85.8612C298.911 85.6026 298.282 85.6161 298.29 85.8772C298.293 85.9872 298.186 86.0796 298.052 86.0826C297.917 86.0858 297.866 86.0013 297.937 85.8954C298.077 85.6864 294.569 85.829 294.184 86.048C294.06 86.1178 293.917 86.073 293.865 85.9484C293.798 85.7858 293.631 85.8019 293.277 86.0052C292.843 86.254 292.743 86.2437 292.456 85.9201C292.21 85.6423 292.087 85.6145 291.957 85.8073C291.82 86.0114 291.747 86.0113 291.593 85.8073C291.44 85.6032 291.279 85.6029 290.798 85.8054C290.467 85.9454 290.072 85.9965 289.921 85.919C289.326 85.6135 286.758 85.4921 286.766 85.7697C286.769 85.8986 286.637 85.887 286.422 85.7397C286.221 85.6017 285.902 85.5675 285.671 85.6589C285.13 85.8726 284.404 85.8965 284.041 85.7126C283.878 85.6296 283.621 85.6548 283.471 85.7686C283.208 85.9686 282.944 85.9676 280.832 85.7583C280.157 85.6916 279.852 85.7346 279.857 85.8958C279.862 86.054 279.768 86.069 279.57 85.9418C279.409 85.8381 278.862 85.7508 278.355 85.7478C277.848 85.7446 276.344 85.7202 275.012 85.693C273.681 85.6658 271.036 85.6313 269.134 85.6163C267.233 85.6013 265.106 85.5635 264.408 85.5323C263.001 85.4692 259.582 85.4768 259.224 85.5437C259.098 85.5673 258.919 85.5782 258.826 85.5678C258.313 85.511 255.234 85.4145 254.844 85.4429C254.591 85.4613 253.969 85.4787 253.462 85.4815C252.955 85.4834 252.023 85.5036 251.39 85.5245C250.757 85.5452 250.135 85.5569 250.008 85.5501C249.881 85.5429 248.222 85.5281 246.32 85.5164C244.419 85.5046 242.267 85.4742 241.537 85.4488C240.808 85.4233 240.213 85.4864 240.216 85.589C240.219 85.6915 240.11 85.7187 239.973 85.6495C239.599 85.4599 234.79 85.4902 234.448 85.6844C234.278 85.7805 233.767 85.7296 233.259 85.566C232.524 85.3292 232.306 85.3258 232.015 85.5464C231.724 85.7674 231.624 85.7648 231.445 85.5316C231.308 85.3544 231.228 85.3378 231.231 85.4873C231.233 85.6616 230.57 85.7186 228.756 85.6997C227.394 85.6855 226.018 85.6289 225.7 85.574C224.695 85.4008 221.692 85.5147 221.039 85.7507C220.609 85.906 220.41 85.912 220.406 85.7698C220.404 85.6556 220.219 85.5821 219.998 85.6066C219.777 85.6311 219.543 85.6332 219.479 85.6117C219.416 85.59 218.43 85.558 217.288 85.5404C216.147 85.5231 214.643 85.4828 213.945 85.4509C213.235 85.4186 212.548 85.4896 212.386 85.612C212.173 85.7728 206.013 86.0627 206.009 85.9121C206.009 85.9019 205.204 85.8684 204.221 85.8371C203.164 85.8035 202.436 85.8582 202.439 85.9708C202.443 86.0856 202.154 86.0805 201.714 85.958C201.175 85.808 200.873 85.8174 200.566 85.9937C200.088 86.268 199.839 86.3079 199.988 86.0863C200.101 85.9178 199.864 85.9121 194.305 85.9496C192.176 85.9639 190.379 85.9011 190.31 85.8102C190.242 85.7191 190.102 85.6924 189.999 85.7508C189.896 85.809 186.06 85.9744 181.473 86.1181C172.831 86.389 170.97 86.3066 170.331 85.625C170.175 85.4578 169.839 85.2968 169.584 85.2673C169.21 85.2238 169.14 85.308 169.216 85.7119L169.311 86.2102L168.716 85.752C168.389 85.4999 168.033 85.3442 167.924 85.4059C167.815 85.4677 167.582 85.4451 167.406 85.3558C167.23 85.2665 166.85 85.2773 166.562 85.3799C166.242 85.4939 165.982 85.4915 165.893 85.3738C165.813 85.2678 165.655 85.234 165.541 85.2985C165.336 85.4148 163.669 85.4646 160.661 85.4443C159.415 85.4361 159.103 85.4938 159.096 85.7343C159.089 85.9397 159.047 85.9564 158.963 85.7872C158.791 85.4419 158.262 85.4899 158.109 85.8647C158.001 86.1287 157.901 86.1386 157.453 85.9292C157.035 85.7341 153.528 85.7522 140.804 86.0153C131.938 86.1987 123.232 86.3239 121.457 86.2936C117.427 86.225 111.447 86.22 102.686 86.2781C98.9527 86.3029 95.8943 86.3143 95.8895 86.3035C95.8369 86.1858 93.1795 86.2879 92.9593 86.4161C92.7329 86.5479 92.7312 86.5875 92.9511 86.5849C93.1094 86.583 93.2418 86.6776 93.2452 86.7948C93.2489 86.9304 92.7747 86.9877 91.9396 86.9524C90.9217 86.9094 90.5869 86.813 90.4455 86.5218C90.2691 86.1587 90.2631 86.1587 90.258 86.5218C90.2533 86.8409 90.1972 86.8588 89.8805 86.6419C89.4634 86.3564 89.2919 86.3346 86.5819 86.2226C84.9604 86.1556 84.5895 86.1983 84.2328 86.4934C83.8673 86.7956 83.7899 86.8032 83.6688 86.5486C83.552 86.3029 82.8264 86.2663 79.3373 86.3299C77.0322 86.372 74.6782 86.3582 74.1062 86.2991C71.4809 86.0284 65.0459 86.1099 64.9313 86.4153C64.8265 86.6947 64.4538 86.6556 64.0508 86.3229C63.8561 86.162 63.4713 86.0458 63.1957 86.0646C62.8025 86.0915 62.7826 86.1168 63.1033 86.1819C63.3279 86.2276 63.4539 86.3509 63.3833 86.456C63.3127 86.5611 63.1679 86.603 63.0615 86.5491C62.9552 86.4952 62.0011 86.423 60.9414 86.3887C59.8818 86.3543 58.7004 86.2896 58.3163 86.2447C57.9322 86.1999 56.2198 86.1472 54.5111 86.1276C52.8023 86.108 50.7799 86.0183 50.0169 85.9282C49.2539 85.838 48.0597 85.774 47.363 85.7858C46.6663 85.7976 45.6791 85.7224 45.1691 85.6184C44.6592 85.5145 43.4126 85.4329 42.3989 85.4371C41.2124 85.4422 40.4378 85.3511 40.2246 85.182C39.9091 84.9319 39.3124 84.9686 37.73 85.3356C37.3831 85.4161 37.2124 85.3641 37.2069 85.1762C37.2022 85.0228 37.017 84.8865 36.7948 84.8732C34.9968 84.766 34.1321 84.6639 33.7856 84.5181C33.563 84.4244 32.9646 84.2945 32.4558 84.2294C31.947 84.1644 31.0089 83.9973 30.3712 83.8582C29.7335 83.7191 27.5481 83.4456 25.5148 83.2506C23.4814 83.0555 21.7122 82.8299 21.5831 82.7492C21.454 82.6685 20.7022 82.5532 19.9124 82.4928C19.0231 82.4249 18.4929 82.2947 18.5199 82.1509C18.544 82.0222 18.2183 81.8975 17.7895 81.8714C17.1974 81.8352 17.0604 81.8851 17.2063 82.0844C17.362 82.2967 17.3292 82.2993 17.0283 82.0984C16.8255 81.963 16.3625 81.8771 15.9993 81.9074C15.6361 81.9378 14.9237 81.9463 14.4162 81.9265C12.5846 81.8545 14.516 81.5481 17.3217 81.4656C19.9686 81.3878 20.7337 81.2771 20.7249 80.9735C20.7154 80.6348 18.7521 80.4685 15.2714 80.5114C13.2583 80.5363 11.273 80.5115 10.8596 80.4577C10.3637 80.3924 10.1102 80.4385 10.1147 80.5928C10.1183 80.7216 10.0252 80.7782 9.90759 80.7185C9.78993 80.6589 9.65146 80.7247 9.59984 80.8636C9.53144 81.0484 9.37417 81.0206 9.01935 80.7608C8.69213 80.5213 8.26092 80.4309 7.70322 80.485C7.01369 80.5519 6.77859 80.467 6.30969 79.9819C5.67771 79.3281 5.80179 79.3572 3.68484 79.3655C2.5876 79.3696 2.22975 79.3122 2.46947 79.1701C2.65633 79.0593 3.04232 78.9621 3.32722 78.9541C3.61213 78.9459 3.84263 78.8497 3.83942 78.7397C3.8372 78.6297 3.66088 78.5434 3.44981 78.5481C3.23873 78.5532 3.12827 78.4996 3.20434 78.4301C3.28042 78.3607 4.02128 78.2847 4.85074 78.2615C5.68019 78.2383 6.35664 78.1438 6.35396 78.0515C6.34805 77.8549 6.09644 77.8176 4.84976 77.8287C3.7864 77.838 3.41741 77.5236 4.25904 77.325L4.83115 77.19L4.24234 76.7515C3.80774 76.4279 3.30278 76.3024 2.31446 76.2724C1.57799 76.2502 0.721707 76.0952 0.411616 75.9283C0.0796481 75.7496 -0.700255 75.6274 -1.48501 75.6311C-2.72543 75.6373 -2.75744 75.626 -1.9469 75.471C-0.802075 75.2522 -0.530927 74.9956 -0.880308 74.4614C-1.0299 74.2327 -1.12275 74.0445 -1.08665 74.0431C-0.612885 74.0255 6.6832 73.248 7.01847 73.1795C7.27042 73.128 7.73539 73.0719 8.05171 73.0548C8.50999 73.0302 8.55551 72.986 8.27578 72.8375C7.99858 72.6903 8.04825 72.6478 8.51183 72.6352C8.83473 72.626 9.19501 72.5314 9.31243 72.4241C9.42985 72.3168 10.1461 72.1655 10.904 72.0877C11.662 72.0101 12.314 71.8562 12.3531 71.7459C12.3922 71.6356 12.5769 71.542 12.7638 71.5379C12.9507 71.5337 13.0399 71.4456 12.962 71.3421C12.8841 71.2385 12.6528 71.2139 12.4482 71.2874C12.2 71.3765 12.129 71.342 12.2351 71.1841C12.3311 71.0411 12.1818 70.881 11.8579 70.78C10.1091 70.2344 10.1026 70.216 11.6553 70.2047C13.964 70.1879 15.3929 70.065 16.0756 69.8242C16.4183 69.7033 16.884 69.6699 17.1103 69.75C17.3367 69.83 17.6101 69.8762 17.7178 69.8525C17.8254 69.8288 18.0611 69.9104 18.2415 70.0339C18.479 70.1965 18.5676 70.1965 18.5629 70.0338C18.5592 69.9103 18.8959 69.8018 19.311 69.7927C19.7261 69.7835 20.2919 69.6309 20.5684 69.4535C20.8449 69.276 21.0726 69.183 21.0745 69.2468C21.0767 69.3105 21.3267 69.2132 21.6307 69.0304C22.3114 68.6212 24.7265 68.0571 24.7337 68.3057C24.7359 68.4054 24.9324 68.3911 25.1706 68.2734C25.4965 68.1126 25.636 68.1315 25.7403 68.3509C25.8313 68.5421 26.1169 68.612 26.5758 68.5553C26.9593 68.5079 27.2754 68.5502 27.2783 68.65C27.2806 68.7495 27.4813 68.7333 27.723 68.614C27.9646 68.4947 28.5575 68.3824 29.0406 68.3643C29.7419 68.338 29.825 68.2988 29.4533 68.1693C29.1972 68.0802 28.7012 67.9603 28.3511 67.9031C28.0009 67.8457 27.7124 67.7305 27.71 67.647C27.7052 67.4882 29.4091 67.4798 29.9162 67.6362C30.0771 67.6859 30.2562 67.6104 30.3141 67.4684C30.3871 67.2897 29.9873 67.1503 29.0133 67.015C28.2398 66.9075 27.4995 66.7309 27.3682 66.6224C27.2072 66.4895 27.3682 66.4792 27.8644 66.591C28.3115 66.6918 28.649 66.6831 28.7259 66.5688C28.7955 66.4653 28.6079 66.386 28.3091 66.3925C28.0104 66.3997 27.6572 66.3146 27.5243 66.2049C27.3914 66.0952 26.8503 65.9759 26.3219 65.9398C25.7935 65.9037 25.1559 65.7845 24.905 65.6749C24.5777 65.5318 24.4042 65.5419 24.2909 65.7107C24.1862 65.8664 24.2331 65.8889 24.4296 65.7774C24.626 65.6659 24.673 65.6883 24.5688 65.8435C24.3459 66.1752 23.9795 66.1434 23.9692 65.7913C23.9645 65.6284 23.7262 65.4586 23.4398 65.414C23.1533 65.3694 22.5019 65.2516 21.9921 65.1522C21.1142 64.981 21.1323 64.9756 22.3347 65.0494C23.0329 65.0923 23.9157 65.1418 24.2965 65.1594C24.6771 65.1771 25.1458 65.2464 25.3378 65.3135C26.1605 65.6012 30.4206 65.783 30.4133 65.5301C30.4111 65.4462 30.1049 65.3265 29.7335 65.2641C28.9694 65.1359 28.6389 64.6676 29.0177 64.25C29.2184 64.0288 29.1787 63.9716 28.8295 63.9793C28.586 63.9844 28.286 63.9103 28.1628 63.8143C28.0396 63.7182 27.5229 63.6003 27.0146 63.5522C25.0552 63.3671 23.7929 63.1318 23.7116 62.9366C23.6632 62.8204 23.2514 62.7855 22.7501 62.8552C22.229 62.9276 21.8063 62.8879 21.7081 62.7576C21.6173 62.6369 21.2729 62.5441 20.9426 62.5514C19.9623 62.5729 20.5261 62.3235 21.6434 62.2413C22.4375 62.1829 22.6479 62.229 22.5608 62.442C22.4987 62.594 22.5631 62.7159 22.7028 62.7128C22.843 62.7096 22.9525 62.5272 22.9461 62.3071C22.939 62.0871 22.8246 61.9095 22.6905 61.9125C22.5564 61.9157 22.5126 61.8197 22.5932 61.6997C22.6839 61.5646 22.8807 61.6474 23.1103 61.9174C23.4551 62.3228 23.5005 62.3287 23.7611 62.0021C23.9697 61.7407 24.1504 61.6976 24.4687 61.8336C24.7037 61.934 25.2249 61.9654 25.6269 61.9032C26.307 61.798 26.3552 61.7361 26.3226 61.0111C26.2947 60.3945 26.2 60.234 25.8677 60.2413C25.6368 60.2464 25.3801 60.1605 25.2973 60.0504C25.2145 59.9404 25.0666 59.8959 24.9685 59.9515C24.8705 60.0071 24.8286 59.852 24.8754 59.6065C24.9414 59.2613 25.1406 59.145 25.7559 59.0925C26.3132 59.0449 26.5966 59.1201 26.703 59.3437C26.8361 59.6237 26.8775 59.6254 27.04 59.3574C27.1819 59.1235 27.4156 59.0848 28.0378 59.1924C28.5155 59.275 28.848 59.2563 28.8448 59.1469C28.8426 59.0331 28.9978 59.0288 29.2477 59.1359C29.9694 59.4451 31.6222 59.5738 31.6148 59.3201C31.6111 59.1939 31.7134 59.144 31.842 59.2092C31.9707 59.2744 32.0732 59.2367 32.07 59.1254C32.0641 58.9195 30.6449 58.5381 29.9355 58.5517C29.7214 58.5568 29.4787 58.4696 29.3964 58.36C29.2995 58.2314 29.6195 58.1916 30.3011 58.2475C30.9567 58.3013 31.3534 58.2557 31.3497 58.1266C31.3474 58.0125 30.9548 57.9193 30.4796 57.9195C30.0043 57.9195 29.1999 57.8913 28.692 57.8567C28.1841 57.8219 26.8408 57.8182 25.7069 57.8485C23.619 57.904 23.3219 57.7871 24.6938 57.4494C25.5037 57.2501 24.7187 57.3041 21.831 57.6466C20.9748 57.7481 20.5085 57.7299 20.5046 57.5947C20.5024 57.4801 20.6785 57.3355 20.8985 57.2733C21.4766 57.1098 18.7203 57.3723 15.7859 57.76C12.0604 58.2523 8.77904 58.4761 8.77213 58.2384C8.76991 58.1283 9.19951 58.001 9.729 57.9555C10.6615 57.8754 10.6781 57.8616 10.259 57.5174C9.8811 57.2071 9.56078 57.1824 7.73288 57.3232L5.63953 57.4845L6.66413 57.0628L7.68872 56.6411L6.82523 56.7814C5.49026 56.9982 0.243328 57.1223 0.369919 56.9341C0.431824 56.8421 0.270448 56.8884 0.0111673 57.037C-0.344535 57.2411 -0.526875 57.2523 -0.732179 57.0827C-0.937471 56.9132 -0.776239 56.7993 -0.0749374 56.6186C0.43617 56.4869 0.939042 56.3899 1.04257 56.403C1.14606 56.4163 1.28211 56.4082 1.34482 56.3854C1.5636 56.3057 2.15708 56.1943 3.75103 55.9337C6.37757 55.5044 6.45336 55.4872 6.69551 55.2659C6.85609 55.1192 6.84196 55.0552 6.64991 55.0594C6.43617 55.0646 6.4361 54.9698 6.64968 54.653C6.86951 54.3267 6.86733 54.2096 6.63905 54.0931C6.48041 54.012 4.80696 53.9862 2.92028 54.0357C0.191839 54.1073 -0.488069 54.0719 -0.402566 53.8627C-0.246382 53.4805 0.301987 53.2557 1.53961 53.0666C2.74573 52.8823 3.26775 52.3999 2.65821 52.0329C2.36008 51.8534 2.51362 51.7817 3.48259 51.6484C4.13749 51.5581 4.77512 51.536 4.89955 51.599C5.02396 51.6621 5.12267 51.6072 5.11888 51.4774C5.11415 51.2988 5.19153 51.2955 5.43719 51.4636C5.68632 51.6341 5.78943 51.6201 5.87797 51.4034C5.94153 51.2478 6.28534 51.0664 6.64199 51.0002C7.92937 50.7612 8.67699 50.5933 9.34995 50.3918C9.72685 50.2789 10.4223 50.2052 10.8954 50.2281C11.3685 50.2509 11.7823 50.1936 11.815 50.1007C11.8477 50.0078 12.2878 49.9106 12.7931 49.8848C13.2983 49.8591 13.7803 49.7415 13.864 49.6236C13.9493 49.5035 14.7561 49.3989 15.6989 49.3857C17.5048 49.3604 18.064 49.0785 17.7819 48.3356C17.6844 48.0788 17.7379 47.9929 17.956 48.0565C18.1291 48.107 18.2433 48.2631 18.2097 48.4034C18.1633 48.5974 18.4117 48.6175 19.249 48.4873C19.8542 48.3932 20.4857 48.3065 20.6522 48.2945C20.8525 48.2802 20.9047 48.1159 20.8065 47.8091C20.6852 47.4301 20.7534 47.3377 21.1796 47.3036C22.5824 47.1915 23.1705 47.1322 24.2281 46.9961C24.8593 46.9149 25.8728 46.7843 26.4801 46.706C27.1154 46.624 27.709 46.6489 27.8778 46.7645C28.0892 46.9092 28.2765 46.8531 28.5471 46.5641C28.9693 46.1131 30.0648 45.9602 29.9199 46.3725C29.8305 46.6263 30.4854 46.411 30.8691 46.0605C31.0815 45.8663 31.3449 45.7529 31.4542 45.8083C31.5636 45.8638 31.7157 45.8155 31.7922 45.7021C31.8858 45.5627 32.0745 45.5577 32.3697 45.6867C32.6679 45.817 32.854 45.8101 32.9515 45.6648C33.0324 45.5444 33.4446 45.4919 33.8979 45.5443C34.4165 45.6043 34.647 45.5656 34.5489 45.4351C34.391 45.2253 35.724 45.1838 36.1628 45.3848C36.5666 45.5699 36.8329 45.5244 37.7343 45.1162C38.2165 44.8979 38.545 44.8174 38.4644 44.9374C38.3823 45.0594 38.4867 45.1518 38.7015 45.1471C38.9479 45.1419 39.0346 45.0323 38.9438 44.8415C38.8661 44.6781 38.9156 44.5419 39.0538 44.5389C39.2322 44.5347 39.2318 44.4604 39.0516 44.282C38.5772 43.8103 39.8045 42.9248 40.3305 43.3592C40.5361 43.529 40.601 43.5253 40.5958 43.344C40.5921 43.212 40.796 43.0994 41.0493 43.0938C41.3563 43.0867 41.5137 43.2171 41.5215 43.4838C41.5286 43.7038 41.4296 43.8861 41.3029 43.8889C41.1763 43.8908 41.075 43.9762 41.078 44.0768C41.0802 44.1774 41.5227 44.2146 42.0597 44.1597C45.291 43.8284 48.0329 43.4942 49.2206 43.287C49.9693 43.1564 51.6753 42.9901 53.0117 42.9174C54.348 42.8447 55.678 42.6699 55.9673 42.5289C56.3324 42.3509 56.5434 42.3364 56.6572 42.4815C56.7474 42.5964 57.0112 42.6608 57.2435 42.6245C57.9109 42.5202 57.983 42.3213 57.3484 42.3352C56.9927 42.3424 56.7694 42.2344 56.7641 42.0508C56.7558 41.7571 57.0656 41.6066 58.0735 41.4149C58.3579 41.3608 58.6987 41.2087 58.8309 41.077C59.0057 40.9028 58.9939 40.8777 58.7876 40.985C58.6315 41.0661 58.5011 41.0372 58.4977 40.9206C58.494 40.8041 58.7765 40.7039 59.1248 40.6979C59.6184 40.6897 59.6832 40.7315 59.4184 40.8886C59.1281 41.0608 59.1373 41.0892 59.4817 41.0843C59.7034 41.0823 59.8806 40.9338 59.8754 40.757C59.8695 40.5566 59.9945 40.4752 60.2074 40.5408C60.3951 40.5987 60.6074 40.5586 60.6792 40.4518C60.7509 40.3449 60.6516 40.2609 60.458 40.2652C60.2408 40.2703 60.1533 40.1577 60.2293 39.9717C60.3678 39.6328 59.9007 39.435 58.8885 39.404C57.2237 39.353 57.1654 39.3413 57.5238 39.1287C57.7107 39.0179 57.7597 38.9221 57.6328 38.9157C57.5059 38.9096 57.0695 38.8739 56.6629 38.8367C56.2563 38.7996 55.8631 38.8593 55.7891 38.9695C55.608 39.239 54.4559 39.2503 54.1355 38.9857C53.9507 38.8331 53.8373 38.8356 53.7305 38.995C53.6489 39.1164 53.3637 39.2206 53.0968 39.2265C52.4289 39.2412 52.7816 39.482 53.8274 39.7255C54.3525 39.8477 54.9064 39.8555 55.2249 39.7451C55.548 39.6331 55.8659 39.6399 56.0451 39.7624C56.206 39.8726 56.5046 39.9028 56.7086 39.8296C56.9126 39.7565 57.0821 39.7857 57.0853 39.8947C57.0936 40.186 56.1321 40.3769 55.8004 40.1498C55.6202 40.0265 55.4669 40.0263 55.3842 40.1498C55.2425 40.3607 54.6743 40.3553 54.4142 40.1405C54.3257 40.0675 53.7577 39.9616 53.1519 39.9053C52.2018 39.8171 52.0612 39.7465 52.129 39.3927C52.1731 39.1631 52.0296 38.8709 51.8032 38.7293C51.5808 38.5901 51.4891 38.4714 51.5995 38.4654C51.7098 38.4593 51.6684 38.3235 51.5071 38.1632C51.2698 37.9272 51.284 37.8467 51.5818 37.7398C52.1386 37.54 52.0382 36.9919 51.4757 37.1608C51.2006 37.2433 51.0162 37.2068 51.0122 37.069C51.0085 36.9369 50.6897 36.8622 50.2582 36.8922C49.8471 36.9208 49.4066 36.9267 49.2793 36.9055C49.1519 36.8841 48.9583 36.8827 48.849 36.9022C48.7398 36.9221 48.2968 36.8453 47.8648 36.7319C46.7474 36.4386 46.8187 35.962 47.9838 35.9364C48.9386 35.9154 49.2907 35.5255 48.3744 35.5038C48.0891 35.4966 48.3452 35.3916 48.9436 35.2695C49.542 35.1473 50.0295 34.9736 50.0269 34.8833C50.0198 34.6598 49.3305 34.1053 49.0662 34.1111C48.9487 34.1131 48.8483 33.9755 48.8433 33.804C48.8374 33.6061 48.941 33.5458 49.1265 33.6391C49.2979 33.7253 49.2591 33.5861 49.0327 33.3027C48.7386 32.9344 48.4068 32.8094 47.6388 32.7776C47.0844 32.7548 46.5499 32.6314 46.451 32.5035C46.3158 32.3288 46.2721 32.3332 46.2749 32.5212C46.2771 32.6588 46.1074 32.775 45.898 32.7796C45.5942 32.7868 45.6221 32.7049 46.0367 32.3763C46.3224 32.1498 46.7031 31.9613 46.8827 31.9574C47.0624 31.9533 47.3702 31.8032 47.5667 31.6236C47.8059 31.4051 48.145 31.3304 48.592 31.3979C49.0391 31.4654 49.207 31.4284 49.0998 31.286C49.0115 31.1685 48.5665 31.1208 48.106 31.1795C47.444 31.2638 47.1626 31.1897 46.7402 30.818C46.0062 30.1727 46.0557 30.0539 47.171 29.7853C48.0388 29.5763 48.0962 29.5832 47.7048 29.8493C47.4636 30.0134 47.1306 30.1505 46.9649 30.1542C46.3619 30.1674 46.6948 30.5352 47.5014 30.747C48.1962 30.9294 48.3923 30.9115 48.726 30.6355C48.9446 30.4548 49.2706 30.3022 49.4505 30.2966C49.7224 30.2884 49.7183 30.2512 49.426 30.0781C49.1364 29.9067 49.1519 29.89 49.5132 29.9837C50.2275 30.169 52.6385 29.6242 52.6284 29.2797C52.6214 29.0319 52.3633 29.012 51.0796 29.16C49.6744 29.3221 49.5657 29.3086 49.8402 29.0061C50.1105 28.7081 50.0467 28.6832 49.2101 28.76C48.6981 28.807 48.143 28.9372 47.9765 29.0492C47.81 29.1613 47.3895 29.2848 47.0421 29.3237C46.5297 29.381 46.4082 29.3134 46.3981 28.9665C46.3886 28.6359 46.4868 28.5641 46.8303 28.6506C47.3167 28.773 47.7105 28.4349 47.2413 28.2977C46.8904 28.1951 41.7737 28.3993 38.8422 28.6329C37.6727 28.7261 36.7147 28.7627 36.7132 28.7142C36.711 28.6384 39.3831 28.314 43.1636 27.931C44.5146 27.7942 44.9765 27.6238 44.966 27.2663C44.959 27.0321 44.44 26.9934 42.1373 27.0552C37.927 27.1681 34.7275 27.0742 34.6278 26.8346C34.5797 26.7189 34.1376 26.6331 33.6455 26.644C32.9469 26.6594 32.7778 26.5976 32.8741 26.3622C32.9895 26.0798 32.4725 26.0537 31.4583 26.2907C31.3324 26.3202 31.0217 26.331 30.7677 26.315C30.3909 26.2909 30.4231 26.2455 30.9429 26.0678C31.4223 25.9038 31.518 25.7884 31.3296 25.6011C31.1328 25.4054 31.3464 25.3409 32.329 25.2996C33.0164 25.2707 33.8693 25.1398 34.2245 25.0085C34.5796 24.8773 35.3297 24.7715 35.8914 24.7734C36.4531 24.7753 36.8402 24.717 36.7516 24.6438C36.5925 24.5124 36.0186 24.4393 35.0577 24.4279C34.786 24.4247 34.4942 24.2758 34.4091 24.097C34.2799 23.8251 34.3132 23.812 34.6126 24.0169C34.8576 24.1846 34.9685 24.1912 34.9641 24.0375C34.9604 23.914 34.8794 23.8027 34.7841 23.7902C34.4289 23.7435 32.7062 23.671 30.858 23.6249C28.8721 23.5753 27.3758 23.1049 27.5034 22.5701C27.5549 22.3542 27.5034 22.3546 27.2154 22.5721C26.9428 22.779 26.863 22.7831 26.8573 22.5904C26.8526 22.4333 26.6385 22.3826 26.2718 22.4519C25.9537 22.5119 25.6496 22.5029 25.5961 22.4319C25.5426 22.3607 25.1073 22.2882 24.6288 22.2708C24.1503 22.2535 23.6052 22.1339 23.4174 22.0054C23.2297 21.8768 23.0408 21.795 22.9977 21.8234C22.8064 21.9499 22.2282 21.8741 22.2237 21.7221C22.2215 21.6295 22.6869 21.605 23.259 21.6676C23.9522 21.7434 24.2983 21.7085 24.2964 21.563C24.2942 21.4217 24.3553 21.4139 24.4685 21.541C24.5648 21.649 24.9549 21.747 25.3354 21.7589C26.6347 21.7996 28.3164 21.9722 28.4448 22.0782C28.5153 22.1365 28.3927 22.3047 28.1725 22.4522C27.7943 22.7054 27.798 22.7256 28.2401 22.8157C29.0665 22.9842 30.5251 22.6924 30.3802 22.3876C30.2768 22.1702 30.608 22.1066 32.002 22.0759C33.964 22.0328 34.4204 21.6945 32.5336 21.6819C28.1746 21.6527 27.7501 21.5986 27.7346 21.0696C27.7264 20.7797 27.415 20.7581 23.8989 20.8038C22.194 20.8261 22.0391 20.7956 22.1315 20.4529C22.2018 20.1926 22.3662 20.1113 22.6683 20.1873C22.9078 20.2477 23.1013 20.2099 23.0982 20.1035C23.0935 19.9299 20.2512 19.3726 19.3903 19.3764C16.4814 19.3892 15.4726 19.3537 15.4692 19.2386C15.4645 19.071 16.8076 18.692 18.1929 18.4699C18.8574 18.3634 19.0922 18.2569 18.8751 18.1604C18.5666 18.0233 16.7829 17.7309 16.2051 17.7227C16.0638 17.7208 15.7747 17.6002 15.5625 17.455C15.1845 17.1962 13.5946 17.1628 12.4279 17.3891C12.1085 17.451 11.2268 17.5602 10.4685 17.6316C8.86405 17.7826 9.21708 17.5776 11.5447 17.0066C14.0174 16.3999 13.5413 16.0157 10.3059 16.007C9.10191 16.0038 8.01311 16.0009 7.88636 15.9999C7.75961 15.9999 7.8006 15.9151 7.97745 15.8123C8.40569 15.5634 6.40544 15.3424 5.32504 15.5192C4.89058 15.5903 4.53266 15.564 4.52966 15.461C4.52744 15.3579 4.20968 15.2804 3.82529 15.2889C3.44089 15.2971 2.85936 15.1605 2.53302 14.9849L1.93964 14.6654L2.59896 14.4074C2.96158 14.2654 3.99477 14.0182 4.89495 13.8579C6.6373 13.5478 6.97151 13.1904 5.33332 13.3892C4.5782 13.4808 4.43417 13.4552 4.69642 13.2759C4.96481 13.0924 4.86804 13.06 4.23105 13.1201C3.7201 13.1683 3.44249 13.1119 3.46985 12.9652C3.51463 12.7257 2.9123 12.7457 1.46348 13.0319C0.783653 13.1662 0.851991 13.1053 1.91264 12.6312C2.80373 12.2329 3.46217 12.0798 4.20129 12.099C4.77201 12.1138 5.64953 12.0419 6.15134 11.9394C6.90462 11.7853 6.9833 11.7275 6.60252 11.6079C6.34885 11.5282 5.64893 11.4675 5.04712 11.473C4.25754 11.4802 3.9506 11.403 3.94456 11.1959C3.93747 10.9657 3.49885 10.9205 1.72983 10.9677C0.516339 11.0003 -0.573519 10.9466 -0.692053 10.8487C-0.822026 10.7414 -0.573587 10.6438 -0.0662497 10.6029C0.952764 10.5208 1.22447 10.3854 1.06099 10.0416C0.905494 9.7146 1.42261 9.51618 2.70456 9.411C3.25376 9.36595 3.81895 9.22324 3.96054 9.09385C4.15416 8.91692 3.86095 8.8977 2.77772 9.01626C1.66285 9.13833 1.35032 9.11519 1.39431 8.91385C1.42562 8.77082 1.29697 8.65309 1.10863 8.65222C0.920243 8.65222 0.729805 8.50659 0.685435 8.33056C0.619398 8.06854 0.918659 7.97884 2.33605 7.83577C3.28826 7.73961 4.48972 7.52101 5.00598 7.34991C5.52224 7.17879 6.24873 7.01196 6.6204 6.9791C6.99208 6.94626 7.49771 6.74782 7.74405 6.53811C8.02008 6.30309 8.63721 6.11812 9.35243 6.05601C9.99071 6.00059 10.6444 5.85546 10.8052 5.73348C11.2205 5.41833 13.6587 4.80875 14.4324 4.8266C14.8489 4.83584 15.0251 4.76451 14.9219 4.62734C14.8319 4.50774 14.8988 4.43329 15.0732 4.45882C15.245 4.48397 16.2642 4.40772 17.3379 4.28928C18.4117 4.17087 19.4352 4.09256 19.6125 4.11531C19.7897 4.13799 19.9953 4.07549 20.0692 3.97643C20.311 3.6524 23.5981 2.8621 25.1275 2.76032C26.4657 2.67124 26.6287 2.61438 26.683 2.21766C26.7511 1.72146 27.1174 1.61887 27.3176 2.03997C27.4951 2.41335 28.2875 2.19073 28.4433 1.72367C28.55 1.40341 28.7869 1.35154 30.1108 1.35834C31.6421 1.36553 32.3531 1.62597 31.6034 1.9037C31.3693 1.99042 31.6152 2.04519 32.2165 2.04039C32.9666 2.03423 33.1882 1.96507 33.0936 1.76619C33.0012 1.57179 33.1328 1.52214 33.582 1.58215C33.9203 1.62731 34.3197 1.74398 34.4697 1.84135C34.6392 1.95138 34.799 1.93402 34.8921 1.79548C35.0004 1.63431 35.1296 1.63269 35.3589 1.78933C35.5659 1.93102 36.0591 1.94584 36.7797 1.83201C37.3868 1.73606 38.1424 1.64476 38.4587 1.62899C38.9012 1.60715 39.0267 1.49719 39.0027 1.15316L38.9714 0.705952L47.1674 0.640996C55.2133 0.577267 76.9342 0.278781 78.9704 0.204031C79.5401 0.183086 80.1099 0.166572 80.2366 0.167393C84.4904 0.191 91.9489 0.195621 94.7531 0.176633C96.7803 0.162873 100.099 0.16945 102.127 0.19203C107.79 0.254323 115.835 0.249393 116.988 0.18279C117.558 0.149849 118.127 0.124606 118.254 0.126761C118.381 0.128685 119.626 0.152611 121.021 0.179609C125.866 0.273405 130.737 0.295942 137.037 0.253805C144.613 0.203111 151.838 0.198694 155.47 0.242607C157.862 0.271538 160.837 0.271118 173.903 0.240679C176.121 0.235547 182.185 0.187936 187.379 0.135042C192.574 0.0821924 198.586 0.0468907 200.741 0.0565387C202.896 0.0657763 206.559 0.0597496 208.882 0.0423651C212.004 0.0188543 213.155 0.0763299 213.295 0.262742C213.431 0.443573 213.528 0.450383 213.638 0.286772C213.722 0.161296 213.902 0.114643 214.037 0.183103C214.172 0.251653 216.266 0.294306 218.69 0.278022C221.114 0.261792 225.378 0.242927 228.166 0.236157C236.404 0.216142 237.053 0.206192 237.171 0.0978851C237.234 0.04093 237.739 0.103017 238.295 0.23463C238.851 0.366716 239.362 0.423432 239.431 0.360636C239.609 0.1976 244.175 0.17272 244.492 0.333013C244.637 0.40649 245.846 0.464845 247.178 0.46268C254.771 0.450364 268.046 0.49459 269.189 0.536152C269.696 0.554531 272.341 0.586751 275.066 0.607481C277.792 0.628329 280.36 0.712871 280.775 0.795389C281.208 0.881693 281.526 0.869281 281.523 0.766141C281.52 0.667521 282.114 0.609963 282.844 0.638285C283.573 0.666607 284.171 0.699139 284.171 0.710631C284.173 0.752399 291.236 0.757731 297.305 0.72089C303.145 0.685075 312.038 0.68426 316.199 0.718971C317.213 0.727182 320.169 0.742061 322.767 0.751292C325.365 0.76053 328.788 0.800142 330.373 0.839036C331.958 0.87793 335.639 0.881726 338.553 0.847248C348.888 0.725294 357.23 0.698389 358.482 0.782909C360.191 0.898224 365.416 0.985125 367.127 0.926682C369.982 0.82919 371.53 0.824257 372.426 0.909836C372.934 0.958374 374.025 1.01062 374.849 1.0259C375.673 1.04107 377.696 1.07834 379.344 1.1084C380.993 1.13846 382.757 1.19378 383.265 1.23123C385.061 1.36372 387.454 1.45442 390.416 1.5022C392.064 1.52879 393.724 1.55608 394.104 1.56285C394.532 1.57004 394.863 1.71013 394.972 1.92912C395.125 2.23875 395.604 2.37505 395.975 2.21481C396.042 2.18578 396.185 2.27854 396.292 2.42091C396.504 2.70317 398.635 2.84126 398.627 2.57223C398.623 2.4813 398.777 2.40341 398.967 2.39924C399.157 2.39514 399.315 2.46246 399.317 2.54911C399.321 2.63573 399.53 2.71556 399.783 2.72659C400.037 2.73756 400.242 2.65116 400.239 2.53449C400.235 2.40772 400.384 2.42643 400.61 2.58098C401.105 2.91958 404.583 2.95851 405.015 2.63023C405.257 2.44645 405.315 2.45165 405.267 2.65301C405.195 2.95141 405.584 3.0067 408.254 3.07749C410.976 3.14974 412.263 3.31922 412.408 3.62491C412.513 3.84552 412.591 3.84074 412.857 3.59742C413.083 3.39161 413.339 3.35126 413.706 3.46357C413.996 3.55203 414.955 3.67657 415.838 3.74034C416.721 3.80406 417.315 3.89771 417.158 3.9484C417.001 3.99909 416.874 4.11052 416.877 4.19611C416.882 4.35178 419.976 5.08903 421.041 5.18818C421.723 5.25161 421.949 5.63551 421.37 5.7459C421.143 5.78931 421.609 5.98105 422.407 6.17196C423.204 6.36289 423.859 6.58759 423.862 6.67138C423.865 6.75511 424.413 6.96814 425.081 7.14473C426.194 7.43897 426.253 7.48353 425.784 7.67783C425.433 7.82308 425.108 7.8243 424.751 7.68194C423.807 7.3045 423.169 7.23538 422.852 7.47625C422.622 7.65074 422.412 7.65815 422.059 7.50425C421.796 7.389 421.19 7.29203 420.713 7.28875C420.237 7.28555 419.777 7.19465 419.691 7.08689C419.451 6.78545 416.547 6.88863 416.216 7.21037C415.985 7.43457 416.106 7.45591 416.911 7.33255C417.692 7.21269 417.887 7.24296 417.894 7.48551C417.9 7.68817 418.131 7.78291 418.594 7.77272C419.014 7.76348 419.288 7.86139 419.293 8.02294C419.298 8.20671 419.077 8.26489 418.574 8.21202C418.124 8.16471 417.904 8.21009 417.996 8.33291C418.161 8.55133 419.515 8.71582 421.965 8.81506C422.854 8.85098 424.293 9.00782 425.164 9.1635C426.139 9.33789 427.185 9.39178 427.886 9.30393C428.787 9.19114 429.055 9.22521 429.17 9.46681C429.25 9.6348 429.537 9.85203 429.807 9.9495C430.226 10.1007 430.205 10.1128 429.662 10.0322C429.297 9.97803 429.028 10.0261 429.032 10.1447C429.036 10.2586 428.752 10.3412 428.404 10.3282C428.055 10.3152 427.547 10.3738 427.275 10.4581C427.003 10.5425 426.715 10.5245 426.635 10.4183C426.464 10.1913 425.127 10.5715 425.135 10.8448C425.139 10.9405 425.295 10.9635 425.484 10.8956C426.017 10.7043 427.596 10.9718 427.214 11.1888C427.042 11.2867 426.816 11.3238 426.712 11.2713C426.609 11.2188 426.464 11.3218 426.392 11.5001C426.315 11.6879 426.053 11.8043 425.77 11.7766C425.501 11.7504 425.283 11.834 425.285 11.9624C425.289 12.0908 425.214 12.265 425.121 12.3496C424.846 12.601 424.938 12.8374 425.308 12.8292C425.498 12.8251 425.658 12.9567 425.662 13.1217C425.667 13.2884 425.876 13.4172 426.132 13.4116C426.439 13.4044 426.596 13.5348 426.604 13.8016C426.611 14.0216 426.719 14.1994 426.846 14.1966C426.972 14.1946 427.072 14.069 427.068 13.9192C427.062 13.7362 427.251 13.6742 427.642 13.7303C428.241 13.8162 428.751 14.2107 428.193 14.1566C427.55 14.0944 427.325 14.1947 427.461 14.482C427.551 14.6714 427.409 14.85 427.065 14.9784C426.533 15.1775 426.533 15.1789 427.162 15.1777C427.511 15.1777 427.799 15.2697 427.802 15.3835C427.806 15.5206 427.946 15.5227 428.215 15.3897C428.542 15.2285 428.632 15.2688 428.67 15.5934C428.707 15.9175 428.615 15.9768 428.208 15.8913C427.928 15.8326 427.407 15.7898 427.052 15.7962C426.696 15.8024 426.458 15.7289 426.522 15.6328C426.587 15.5363 426.206 15.5366 425.673 15.6328C425.141 15.7295 424.651 15.7422 424.585 15.6613C424.391 15.4242 423.421 15.2912 423.428 15.5026C423.431 15.6088 423.344 15.6506 423.236 15.5956C422.923 15.437 421.34 15.9192 421.495 16.1258C421.572 16.2282 422.043 16.3031 422.543 16.2921C423.047 16.2811 423.453 16.3696 423.456 16.4915C423.46 16.6306 423.883 16.6762 424.612 16.6162C425.245 16.5642 425.764 16.5889 425.766 16.6716C425.77 16.7541 425.952 16.819 426.173 16.8158C426.395 16.8139 426.735 16.9038 426.928 17.0183C427.234 17.1997 427.232 17.2147 426.911 17.1342C426.708 17.0834 426.398 17.1361 426.223 17.2494C425.958 17.422 425.963 17.4394 426.255 17.3529C426.448 17.2956 426.917 17.3601 427.296 17.4975C427.923 17.7232 427.828 17.7401 426.269 17.6799C424.694 17.6192 424.578 17.6405 424.875 17.9358C425.15 18.2092 425.149 18.2497 424.87 18.2038C424.69 18.174 424.571 18.2616 424.607 18.3985C424.642 18.5353 424.505 18.6509 424.301 18.6554C424.043 18.6615 423.975 18.5571 424.078 18.31C424.344 17.6677 424.3 17.5647 423.727 17.5026C423.251 17.4509 423.207 17.487 423.45 17.7288C423.863 18.1391 423.568 18.6715 422.92 18.6858C422.617 18.6929 422.371 18.7816 422.374 18.884C422.378 18.9863 422.147 19.104 421.863 19.1454C421.099 19.2569 421.247 19.5904 422.172 19.8418C422.619 19.9634 422.834 20.0712 422.651 20.0815C422.384 20.0963 422.376 20.1488 422.612 20.3438C422.915 20.5934 423.009 20.6171 423.808 20.6428C424.061 20.651 424.273 20.787 424.277 20.9451C424.283 21.1225 424.571 21.2502 425.03 21.2788L425.775 21.3252L424.993 21.9919C424.298 22.5852 424.065 22.6621 422.875 22.689C422.042 22.7072 421.593 22.7937 421.685 22.9163C421.767 23.0246 421.723 23.1156 421.589 23.1186C421.455 23.1218 421.34 22.9386 421.334 22.712C421.326 22.484 421.219 22.3586 421.091 22.431C420.964 22.5029 420.933 22.6583 421.022 22.7762C421.136 22.9275 420.714 22.9624 419.589 22.8949C414.187 22.5704 412.868 22.4856 412.454 22.4361C412.2 22.4056 411.787 22.4801 411.538 22.6015C411.288 22.7229 410.772 22.8122 410.391 22.7999C409.864 22.7829 409.783 22.8229 410.05 22.9679C410.36 23.1357 410.359 23.1595 410.045 23.1691C409.848 23.1763 409.583 23.0937 409.455 22.9882C409.328 22.8827 408.73 22.7911 408.126 22.7845C407.523 22.7773 406.976 22.7019 406.911 22.6154C406.846 22.5289 406.533 22.568 406.216 22.7021C405.764 22.8931 405.597 22.8907 405.447 22.6909C405.305 22.5024 405.139 22.4929 404.811 22.6544C404.51 22.8033 403.269 22.8389 400.926 22.7659C396.552 22.6296 396.16 22.6373 396.325 22.856C396.504 23.0938 397.809 23.2385 399.865 23.2488C401.006 23.2549 401.509 23.3305 401.445 23.4873C401.389 23.6243 401.718 23.7602 402.258 23.8231C403.596 23.9788 403.435 24.3833 402.081 24.2685C401.478 24.2173 399.428 24.1591 397.527 24.1392C395.625 24.1192 393.446 24.0671 392.685 24.0235C391.923 23.9798 391.175 23.941 391.022 23.9372C390.869 23.9331 390.788 23.8636 390.843 23.7823C390.898 23.7009 390.785 23.5856 390.592 23.5262C389.884 23.3079 386.187 23.0775 383.048 23.0561C381.274 23.0439 379.67 22.9643 379.484 22.879C379.085 22.6966 376.874 23.1002 376.882 23.3541C376.885 23.4498 377.398 23.4673 378.024 23.3929C378.754 23.3059 379.221 23.3377 379.329 23.4815C379.432 23.6192 379.393 23.6528 379.228 23.5686C379.066 23.487 378.961 23.5615 378.967 23.7524C378.973 23.9468 378.817 24.0533 378.571 24.0231C378.302 23.9899 378.191 24.0847 378.24 24.3067C378.281 24.4902 378.209 24.6998 378.081 24.7724C377.953 24.8451 377.845 24.7912 377.841 24.6527C377.835 24.4739 377.764 24.4644 377.594 24.6201C377.378 24.817 377.241 25.2245 377.197 25.7959C377.189 25.9062 377.077 25.8636 376.95 25.7013C376.736 25.429 376.69 25.4622 376.738 25.8561C376.747 25.9385 376.518 26.0625 376.227 26.1318C375.851 26.2215 375.622 26.1472 375.432 25.8721C375.255 25.615 375.114 25.5632 375.011 25.7169C374.926 25.8437 374.972 25.945 375.114 25.9418C375.255 25.9386 375.315 26.019 375.247 26.1203C375.028 26.4468 374.159 26.1412 374.29 25.7835C374.39 25.511 374.359 25.5156 374.108 25.8112C373.775 26.2026 372.135 26.5132 372.125 26.1867C372.122 26.0752 371.995 26.0547 371.843 26.141C371.691 26.2274 370.423 26.2985 369.025 26.299C367.627 26.299 365.266 26.3112 363.778 26.3253C362.289 26.3393 361.07 26.2981 361.068 26.2339C361.064 26.1698 360.752 26.1241 360.373 26.1324C359.993 26.1406 359.684 26.2204 359.686 26.3094C359.69 26.3983 359.423 26.3892 359.095 26.2889C358.258 26.0333 358.059 26.0673 358.235 26.4362C358.362 26.705 358.31 26.7229 357.909 26.5476C357.539 26.3857 357.37 26.4067 357.157 26.6409C357.007 26.807 356.948 26.9528 357.028 26.9648C357.107 26.9768 357.267 26.9958 357.383 27.007C357.5 27.0182 357.675 27.0932 357.772 27.1736C357.87 27.2539 358.39 27.3101 358.928 27.2983C359.467 27.2865 360.099 27.3359 360.333 27.4083C360.706 27.5234 360.688 27.5571 360.187 27.6775C359.68 27.7995 359.715 27.8238 360.489 27.8908C361.143 27.9475 361.331 27.9016 361.239 27.7084C361.087 27.3888 363.064 27.2949 363.301 27.6104C363.401 27.7432 363.245 27.7742 362.857 27.6986C362.483 27.6257 362.26 27.6651 362.265 27.8037C362.268 27.9256 362.348 28.0089 362.443 27.9888C362.537 27.9687 362.924 28.0197 363.302 28.1024C363.893 28.2316 363.928 28.2728 363.551 28.3971C363.241 28.4992 363.443 28.5735 364.238 28.6505C365.43 28.7658 365.839 28.6473 365.269 28.3519C364.995 28.2098 365.028 28.1704 365.427 28.1592C365.702 28.151 366.094 28.2823 366.297 28.45C366.5 28.6177 366.781 28.6901 366.92 28.6108C367.06 28.5316 367.243 28.556 367.327 28.665C367.411 28.7741 368.198 28.9032 369.075 28.9519C370.616 29.0373 371.027 29.1283 370.802 29.3341C370.743 29.3878 369.622 29.5003 368.311 29.5842C366.937 29.6721 365.862 29.8322 365.775 29.9618C365.675 30.111 365.574 30.0811 365.475 29.8732C365.275 29.4537 363.004 29.4668 363.017 29.8873C363.024 30.1056 362.707 30.1492 361.525 30.0929C360.532 30.0456 360.027 30.0948 360.031 30.2371C360.042 30.6009 360.271 30.6259 364.076 30.6778C368.083 30.7324 369.068 30.8177 369.311 31.1309C369.477 31.346 370.128 31.3711 374.866 31.3446C376.481 31.3354 378.194 31.4069 378.673 31.5031C379.152 31.5993 380.632 31.6901 381.964 31.7049C383.295 31.7197 385.214 31.756 386.229 31.7854C387.243 31.8148 389.262 31.8717 390.715 31.9116C392.168 31.9516 393.57 32.0226 393.83 32.0693C394.091 32.1161 394.689 32.1401 395.159 32.1226C395.819 32.0981 395.987 32.1582 395.893 32.3866C395.792 32.6338 395.257 32.6762 392.639 32.6449C390.916 32.6243 389.428 32.5678 389.333 32.5195C389.237 32.4711 389.104 32.5143 389.036 32.615C388.867 32.8668 389.72 33.0203 391.133 32.9925C392.119 32.9731 392.337 33.035 392.447 33.3655C392.569 33.7312 392.757 33.7551 394.885 33.6755C396.206 33.6262 397.325 33.6755 397.503 33.7916C397.83 34.0044 398.969 34.1903 400.703 34.3137C402.167 34.418 402.319 34.4803 402.354 34.9941C402.372 35.2449 402.435 35.3358 402.495 35.1962C402.555 35.0566 402.708 34.9947 402.834 35.0586C402.96 35.1226 403.445 35.166 403.911 35.1551C404.378 35.1448 404.865 35.2064 404.995 35.2932C405.124 35.38 405.657 35.4724 406.18 35.4985C406.702 35.5245 407.12 35.6361 407.108 35.7465C407.097 35.8568 406.983 35.9167 406.855 35.8796C406.727 35.8425 405.845 35.8056 404.894 35.7978C403.943 35.7907 403.008 35.7315 402.816 35.668C402.471 35.5536 401.698 35.8613 401.912 36.0279C401.973 36.0755 402.482 36.1586 403.042 36.2127C404.07 36.312 404.62 36.5017 403.924 36.5171C403.684 36.5222 403.598 36.633 403.688 36.8225C403.802 37.0618 403.612 37.1235 402.711 37.1394C402.096 37.1504 401.21 37.0908 400.742 37.0072C400.026 36.8791 399.915 36.9028 400.036 37.1572C400.148 37.3931 400.048 37.4403 399.578 37.373C399.247 37.3256 398.842 37.3648 398.679 37.4602C398.48 37.5759 398.604 37.6297 399.051 37.622C399.511 37.6138 399.932 37.8053 400.392 38.2306C400.761 38.5719 401.131 38.7889 401.214 38.713C401.297 38.6371 401.244 38.5776 401.097 38.5809C400.949 38.5841 400.826 38.5085 400.823 38.4129C400.819 38.3172 401.172 38.242 401.604 38.2456C402.205 38.2507 402.336 38.3123 402.16 38.5074C401.991 38.6937 402.03 38.7605 402.302 38.7545C402.724 38.7453 402.811 39.0522 402.445 39.2598C402.288 39.3491 402.354 39.5383 402.634 39.8023C402.87 40.0253 402.921 40.1388 402.746 40.0546C402.553 39.9619 402.351 40.0121 402.235 40.1815C402.082 40.403 402.039 40.3884 402.028 40.1116C402.02 39.9192 401.971 39.7626 401.918 39.7638C401.865 39.7657 401.639 39.7096 401.416 39.6407C401.157 39.561 401.067 39.5918 401.168 39.7253C401.433 40.0779 400.72 40.188 398.618 40.1191C396.412 40.0467 393.502 40.3006 393.948 40.5266C394.103 40.6051 394.717 40.6721 395.313 40.6756C395.908 40.6788 397.365 40.7585 398.55 40.852C399.735 40.9456 400.846 40.9716 401.017 40.91C401.221 40.837 401.288 40.9007 401.209 41.0923C401.042 41.5018 400.062 41.702 399.64 41.413C399.411 41.2564 399.293 41.2485 399.297 41.3901C399.3 41.5092 399.002 41.5943 398.633 41.5793C398.265 41.5643 398.016 41.4737 398.08 41.3779C398.144 41.2822 397.953 41.2757 397.654 41.3638C397.356 41.4517 397.082 41.5946 397.046 41.6813C397.01 41.768 396.698 41.7191 396.352 41.5725C395.942 41.3988 395.697 41.3798 395.647 41.5179C395.539 41.8217 395.672 41.8843 396.502 41.9209C396.907 41.9386 397.242 42.0296 397.244 42.1227C397.248 42.2158 397.344 42.2381 397.46 42.1721C397.576 42.1063 397.733 42.1346 397.809 42.2352C397.884 42.3357 397.764 42.3976 397.541 42.3728C397.318 42.3479 397.064 42.4289 396.977 42.5528C396.881 42.6896 396.233 42.7699 395.329 42.757C394.509 42.7454 393.781 42.8224 393.71 42.928C393.519 43.2118 396.972 43.6658 399.826 43.7321C402.733 43.7997 404.597 43.9583 405.254 44.1943C405.638 44.3323 406.939 44.4883 408.144 44.541C410.6 44.6483 411.274 44.7973 411.87 45.3646C412.17 45.65 412.833 45.8155 414.327 45.9775C415.452 46.0995 417.313 46.4474 418.462 46.7505C421.065 47.4368 423.563 47.8987 424.543 47.8749C425.225 47.8579 425.58 48.1214 425.11 48.2945C425.004 48.3335 424.857 48.6041 424.784 48.8959C424.614 49.5712 425.027 49.8657 426.185 49.8962C426.855 49.9139 427.136 50.032 427.353 50.3887C427.511 50.6468 427.952 50.9812 428.335 51.1319C428.819 51.3227 429.001 51.5152 428.933 51.7665C428.866 52.0138 429.005 52.1703 429.376 52.2641C429.873 52.3896 429.852 52.4129 429.115 52.5483C428.674 52.6295 427.224 52.6744 425.892 52.6482C421.992 52.5715 420.657 52.8492 422.646 53.3235C423.214 53.459 423.189 53.4759 422.346 53.526C421.432 53.5803 421.431 53.5816 422.119 53.7437C422.5 53.8334 423.294 53.8867 423.882 53.8622C425.054 53.8135 425.469 53.9396 425.481 54.3482C425.486 54.4949 425.669 54.6706 425.889 54.7385C426.234 54.8449 426.243 54.8913 425.956 55.0739C425.703 55.2351 425.693 55.3087 425.916 55.3814C426.518 55.5784 425.958 55.7934 425.03 55.7209C424.127 55.6504 422.444 56.0043 421.992 56.3597C421.709 56.5832 422.518 56.6792 425.436 56.7682C426.831 56.8107 428.441 56.8842 429.012 56.9312C429.584 56.9782 430.492 57.0056 431.03 56.9918C432.927 56.9432 431.814 57.6677 429.818 57.7801C429.073 57.8221 428.336 57.9465 428.181 58.0566C428.026 58.1666 427.897 58.1975 427.895 58.1251C427.891 58.0528 427.705 58.0856 427.477 58.1982C427.249 58.3107 426.428 58.4366 425.652 58.478C423.945 58.5692 423.493 58.764 424.236 59.0887C424.549 59.2255 425.122 59.2624 425.638 59.179C426.133 59.099 426.576 59.1235 426.66 59.2353C426.742 59.3438 427.087 59.4336 427.428 59.4348C427.77 59.4367 427.92 59.4853 427.764 59.5442C427.228 59.746 427.479 60.2179 428.129 60.2305C428.85 60.2445 426.543 60.5807 424.974 60.6904C424.405 60.7302 423.782 60.8346 423.589 60.9225C423.395 61.0105 422.466 61.1224 421.522 61.1712C420.579 61.2201 419.601 61.3351 419.351 61.4269C418.911 61.5877 421.291 61.4845 426.37 61.1224C427.697 61.0278 428.701 61.0276 428.6 61.1224C428.499 61.2168 428.294 61.3068 428.145 61.3222C427.996 61.3376 427.693 61.368 427.472 61.3896C426.846 61.4509 427.005 61.7162 427.835 61.9971C428.366 62.1768 429.538 62.2228 431.772 62.1519C434.957 62.0507 436.493 62.2357 434.909 62.5301C434.482 62.6093 433.047 62.7431 431.719 62.8274C429.602 62.9617 425.477 63.3154 422.295 63.6355C421.727 63.6926 420.019 63.8194 418.502 63.917C415.12 64.1346 413.756 64.3075 413.414 64.562C413.248 64.6859 413.096 64.6816 412.997 64.5502C412.78 64.2612 412.164 64.3054 412.243 64.6044C412.282 64.7521 411.941 64.9082 411.39 64.9951C410.728 65.0994 410.633 65.1507 411.05 65.1791C411.367 65.2008 411.756 65.2011 411.914 65.1791C412.072 65.1578 412.203 65.2333 412.207 65.3469C412.211 65.4605 411.979 65.5467 411.694 65.5385C410.703 65.51 407.96 65.8986 407.888 66.0776C407.849 66.1766 407.726 66.2117 407.615 66.1557C407.504 66.0996 406.297 66.1725 404.932 66.3176C403.567 66.4627 401.571 66.6468 400.496 66.7265C398.931 66.8426 395.264 67.2141 393.144 67.4713C392.955 67.4943 392.285 67.6295 391.655 67.7719C390.46 68.0423 389.414 68.2166 388.732 68.2596C388.51 68.2733 388.332 68.3749 388.335 68.4849C388.342 68.7276 389.359 68.7232 390.295 68.4767C390.671 68.3774 391.24 68.3482 391.559 68.4117C392.061 68.5118 392.001 68.5524 391.107 68.717C390.539 68.8215 389.786 68.9346 389.431 68.9684C388.583 69.0493 388.365 69.2718 389.005 69.4023C389.935 69.5919 389.546 69.7932 388.101 69.8704C387.317 69.9122 386.6 69.9896 386.507 70.0424C386.414 70.0952 384.773 70.2142 382.86 70.3067C380.948 70.3994 379.21 70.5766 378.998 70.7005C378.702 70.8737 378.845 70.8935 379.612 70.7856C380.178 70.7062 380.946 70.7425 381.385 70.8695C381.992 71.0453 383.066 71.0174 386.369 70.7399C393.377 70.1511 397.332 69.5863 397.743 69.1155C397.93 68.9014 398.024 68.8788 398.029 69.047C398.035 69.2351 398.425 69.2603 399.587 69.1476C400.44 69.0648 401.862 68.9316 402.747 68.8516C403.631 68.7716 404.974 68.601 405.731 68.4724C406.488 68.3439 407.418 68.2382 407.798 68.2377C408.178 68.2377 408.938 68.2357 409.486 68.2357C410.83 68.2338 410.432 68.5624 408.925 68.6991C408.651 68.724 408.351 68.8135 408.259 68.8981C408.166 68.9827 407.745 69.0595 407.323 69.0688C406.475 69.0875 406.259 69.4784 407.086 69.4981C407.371 69.5052 407.672 69.5013 407.754 69.4898C408.947 69.3273 410.789 69.3776 410.938 69.5769C411.071 69.7531 411.499 69.7743 412.474 69.6526C413.712 69.4981 413.787 69.5102 413.376 69.7974C413.129 69.9698 412.847 70.0702 412.749 70.0206C412.651 69.9709 412.575 70.0482 412.58 70.1922C412.593 70.5454 413.96 71.1982 414.713 71.21C415.047 71.2152 415.503 71.3706 415.726 71.5552C415.982 71.7666 416.303 71.8398 416.592 71.7529C416.909 71.6578 417.024 71.6952 416.961 71.8732C416.843 72.2102 418.477 73.4262 419.037 73.4175C419.817 73.4052 420.513 73.6243 420.52 73.8844C420.53 74.2149 421.058 74.3711 422.089 74.3484C423.506 74.3172 422.79 74.5131 420.967 74.655C419.377 74.7787 418.411 74.9248 417.603 75.1635C417.377 75.2303 417.435 75.4131 417.833 75.8923C418.125 76.2441 418.527 76.641 418.726 76.7742C419.028 76.977 419.032 77.0185 418.755 77.0286C417.174 77.0864 414.781 77.3476 414.315 77.5132C414 77.6252 412.884 77.7869 411.834 77.8724C408.683 78.1294 407.65 78.2935 408.009 78.4803C408.264 78.6129 408.247 78.6504 407.929 78.6599C407.465 78.6736 407.395 78.9872 407.827 79.1152C407.986 79.1626 409.36 79.1451 410.879 79.0762C412.741 78.9919 413.473 79.0156 413.127 79.1494C412.845 79.2585 412.616 79.3819 412.617 79.4237C412.62 79.4656 414.251 79.4666 416.246 79.4257C422.397 79.3007 425.978 79.3285 425.983 79.5013C425.987 79.5922 425.496 79.6944 424.895 79.7282C424.294 79.7621 423.44 79.8131 422.998 79.8417C420.333 80.0136 414.452 80.3578 412.217 80.4727C410.779 80.5467 409.549 80.6563 409.483 80.7163C409.417 80.7764 409.144 80.7858 408.877 80.7371C408.609 80.6884 408.081 80.739 407.704 80.8494C407.327 80.9597 407.149 81.0549 407.307 81.0609C407.466 81.067 407.6 81.2121 407.605 81.3836C407.61 81.5551 407.517 81.6464 407.399 81.5864C407.281 81.5264 407.023 81.6241 406.827 81.8035C406.631 81.9828 406.531 82.211 406.606 82.3106C406.681 82.4102 406.38 82.4996 405.937 82.5093C405.493 82.5196 405.07 82.4467 404.996 82.3486C404.918 82.2441 404.53 82.2669 404.06 82.4037C403.401 82.5952 403.283 82.7109 403.403 83.0498C403.483 83.2769 403.461 83.3745 403.354 83.2667C402.939 82.8465 402.571 82.9757 402.696 83.498L402.82 84.0151L400.352 83.9471C398.995 83.9096 397.482 83.835 396.989 83.781C396.393 83.7157 396.037 83.768 395.923 83.9376C395.789 84.1365 395.524 84.1476 394.71 83.9884C394.136 83.8763 392.593 83.7578 391.28 83.725C389.967 83.6923 388.593 83.6314 388.228 83.5897C387.677 83.5269 387.612 83.561 387.842 83.7902C387.995 83.9421 388.038 84.1055 387.938 84.1533C387.623 84.3044 386.347 84.348 386.184 84.2134L386.186 84.2126ZM316.437 85.9449C316.593 85.8859 316.853 85.8803 317.012 85.9323C317.172 85.9843 317.044 86.0326 316.728 86.0395C316.411 86.0467 316.28 86.0039 316.437 85.9449V85.9449Z" fill="#A268EC"/>
<path d="M88.6211 59.5078C87.8086 59.5078 86.9453 59.4401 86.0312 59.3047C85.1172 59.2031 84.3555 59.0846 83.7461 58.9492C82.4935 58.7122 81.5794 58.526 81.0039 58.3906C80.4622 58.2214 79.9544 58.1029 79.4805 58.0352C79.0404 55.9362 78.7188 54.2266 78.5156 52.9062C78.3125 51.5521 78.2109 50.5703 78.2109 49.9609C78.2109 49.7578 78.4818 49.6562 79.0234 49.6562C79.6328 49.6562 80.056 49.8086 80.293 50.1133C81.4779 54.9883 84.2878 57.4258 88.7227 57.4258C90.4154 57.4258 91.8542 56.918 93.0391 55.9023C94.224 54.8867 94.8164 53.4479 94.8164 51.5859C94.8164 50.9766 94.681 50.2318 94.4102 49.3516C94.1732 48.4714 93.6146 47.7096 92.7344 47.0664C92.0573 46.5586 91.4987 46.1862 91.0586 45.9492C90.6185 45.6784 90.1784 45.4414 89.7383 45.2383C89.2982 45.0013 88.7396 44.6797 88.0625 44.2734L86.0312 43.0547C84.9818 42.4115 83.9323 41.6836 82.8828 40.8711C81.8333 40.0247 80.9531 39.043 80.2422 37.9258C79.5651 36.8086 79.2266 35.5391 79.2266 34.1172C79.2266 32.3229 79.6836 30.7656 80.5977 29.4453C81.5456 28.0911 82.7643 27.0417 84.2539 26.2969C85.7773 25.5521 87.4193 25.1797 89.1797 25.1797C89.9245 25.1797 90.6185 25.2305 91.2617 25.332C91.9388 25.3997 92.4974 25.4844 92.9375 25.5859C93.9531 25.8229 94.6641 26.0091 95.0703 26.1445C95.5104 26.2799 96.1029 26.4323 96.8477 26.6016C97.2539 28.362 97.457 30.7826 97.457 33.8633C97.457 34.1003 97.2878 34.2188 96.9492 34.2188C96.1029 34.2188 95.6628 34.0495 95.6289 33.7109C95.4596 32.6953 95.0872 31.6966 94.5117 30.7148C93.9362 29.7331 93.1576 28.9206 92.1758 28.2773C91.194 27.6003 90.026 27.2617 88.6719 27.2617C87.2839 27.2617 86.2005 27.5326 85.4219 28.0742C84.6432 28.582 84.0846 29.2422 83.7461 30.0547C83.4414 30.8333 83.2891 31.6628 83.2891 32.543C83.2891 33.3893 83.4922 34.2357 83.8984 35.082C84.3047 35.9284 84.8971 36.6393 85.6758 37.2148C86.7253 37.9935 87.7747 38.7214 88.8242 39.3984C89.9076 40.0755 91.0247 40.7695 92.1758 41.4805C93.2591 42.1576 94.3424 42.9193 95.4258 43.7656C96.5091 44.5781 97.4062 45.5091 98.1172 46.5586C98.862 47.6081 99.2344 48.8268 99.2344 50.2148C99.2344 52.0091 98.7435 53.6172 97.7617 55.0391C96.7799 56.4271 95.4766 57.5273 93.8516 58.3398C92.2604 59.1185 90.5169 59.5078 88.6211 59.5078ZM108.426 59.3555C106.868 59.3555 105.582 58.9492 104.566 58.1367C103.551 57.2904 103.043 56.0378 103.043 54.3789C103.043 52.3477 104.363 50.6549 107.004 49.3008C108.155 48.7253 109.289 48.2682 110.406 47.9297C111.557 47.5911 112.708 47.2018 113.859 46.7617C114.164 46.6602 114.316 46.4062 114.316 46V42.1914C114.316 41.1081 113.978 40.2786 113.301 39.7031C112.624 39.0938 111.811 38.7891 110.863 38.7891C109.848 38.7891 109.001 39.1445 108.324 39.8555C107.647 40.5326 107.309 41.4297 107.309 42.5469C107.309 43.7318 106.615 44.3242 105.227 44.3242C104.245 44.3242 103.585 44.0026 103.246 43.3594C103.246 42.6484 103.534 41.9206 104.109 41.1758C104.719 40.3971 105.497 39.6862 106.445 39.043C107.393 38.3997 108.426 37.875 109.543 37.4688C110.694 37.0625 111.828 36.8594 112.945 36.8594C114.807 36.8594 116.145 37.3164 116.957 38.2305C117.77 39.1107 118.176 40.5495 118.176 42.5469V54.2773C118.176 54.9883 118.362 55.5807 118.734 56.0547C119.107 56.5286 119.615 56.7656 120.258 56.7656C120.698 56.7656 121.29 56.5286 122.035 56.0547C122.171 56.0547 122.238 56.1901 122.238 56.4609C122.238 56.901 122.154 57.2565 121.984 57.5273C120.596 58.7122 119.411 59.3047 118.43 59.3047C117.651 59.3047 116.906 58.9831 116.195 58.3398C115.484 57.6966 114.993 57.0195 114.723 56.3086C114.553 56.444 114.333 56.6302 114.062 56.8672C113.826 57.0703 113.622 57.2396 113.453 57.375C112.742 57.9167 111.964 58.3906 111.117 58.7969C110.305 59.1693 109.408 59.3555 108.426 59.3555ZM110.355 56.4609C111.303 56.4609 112.201 56.1901 113.047 55.6484C113.893 55.1068 114.316 54.5312 114.316 53.9219V48.6914C113.436 49.0299 112.59 49.3346 111.777 49.6055C110.999 49.8763 110.372 50.0964 109.898 50.2656C109.289 50.5026 108.697 50.9258 108.121 51.5352C107.579 52.1445 107.309 52.8385 107.309 53.6172C107.309 54.6328 107.613 55.3607 108.223 55.8008C108.866 56.2409 109.577 56.4609 110.355 56.4609ZM123.508 59.1523C123.372 59.0169 123.305 58.7292 123.305 58.2891C123.305 57.8828 123.372 57.6797 123.508 57.6797C123.779 57.6797 124.151 57.6289 124.625 57.5273C125.099 57.4258 125.539 57.2904 125.945 57.1211C126.352 56.9518 126.572 56.7995 126.605 56.6641C126.741 56.1901 126.826 55.6484 126.859 55.0391C126.927 54.4297 126.961 53.7865 126.961 53.1094V31.1211C126.961 29.9701 126.859 28.8867 126.656 27.8711C126.521 27.3294 125.658 27.0586 124.066 27.0586H123.609C123.406 27.0586 123.305 26.8724 123.305 26.5C123.305 25.9583 123.406 25.6875 123.609 25.6875C125.641 25.4505 127.147 25.1797 128.129 24.875C129.111 24.5703 129.788 24.2995 130.16 24.0625L130.668 23.7578H130.77C130.905 23.7578 131.04 23.8594 131.176 24.0625C131.311 24.2318 131.396 24.401 131.43 24.5703C131.057 25.6875 130.871 27.1602 130.871 28.9883V52.1445C130.871 53.1263 130.905 53.9896 130.973 54.7344C131.04 55.4792 131.142 56.1224 131.277 56.6641C131.345 56.7995 131.582 56.9518 131.988 57.1211C132.395 57.2904 132.835 57.4258 133.309 57.5273C133.783 57.6289 134.121 57.6797 134.324 57.6797C134.426 57.6797 134.493 57.8828 134.527 58.2891C134.561 58.6953 134.544 58.9831 134.477 59.1523L129.043 58.8984L123.508 59.1523ZM142.652 59.3555C141.095 59.3555 139.809 58.9492 138.793 58.1367C137.777 57.2904 137.27 56.0378 137.27 54.3789C137.27 52.3477 138.59 50.6549 141.23 49.3008C142.382 48.7253 143.516 48.2682 144.633 47.9297C145.784 47.5911 146.935 47.2018 148.086 46.7617C148.391 46.6602 148.543 46.4062 148.543 46V42.1914C148.543 41.1081 148.204 40.2786 147.527 39.7031C146.85 39.0938 146.038 38.7891 145.09 38.7891C144.074 38.7891 143.228 39.1445 142.551 39.8555C141.874 40.5326 141.535 41.4297 141.535 42.5469C141.535 43.7318 140.841 44.3242 139.453 44.3242C138.471 44.3242 137.811 44.0026 137.473 43.3594C137.473 42.6484 137.76 41.9206 138.336 41.1758C138.945 40.3971 139.724 39.6862 140.672 39.043C141.62 38.3997 142.652 37.875 143.77 37.4688C144.921 37.0625 146.055 36.8594 147.172 36.8594C149.034 36.8594 150.371 37.3164 151.184 38.2305C151.996 39.1107 152.402 40.5495 152.402 42.5469V54.2773C152.402 54.9883 152.589 55.5807 152.961 56.0547C153.333 56.5286 153.841 56.7656 154.484 56.7656C154.924 56.7656 155.517 56.5286 156.262 56.0547C156.397 56.0547 156.465 56.1901 156.465 56.4609C156.465 56.901 156.38 57.2565 156.211 57.5273C154.823 58.7122 153.638 59.3047 152.656 59.3047C151.878 59.3047 151.133 58.9831 150.422 58.3398C149.711 57.6966 149.22 57.0195 148.949 56.3086C148.78 56.444 148.56 56.6302 148.289 56.8672C148.052 57.0703 147.849 57.2396 147.68 57.375C146.969 57.9167 146.19 58.3906 145.344 58.7969C144.531 59.1693 143.634 59.3555 142.652 59.3555ZM144.582 56.4609C145.53 56.4609 146.427 56.1901 147.273 55.6484C148.12 55.1068 148.543 54.5312 148.543 53.9219V48.6914C147.663 49.0299 146.816 49.3346 146.004 49.6055C145.225 49.8763 144.599 50.0964 144.125 50.2656C143.516 50.5026 142.923 50.9258 142.348 51.5352C141.806 52.1445 141.535 52.8385 141.535 53.6172C141.535 54.6328 141.84 55.3607 142.449 55.8008C143.092 56.2409 143.803 56.4609 144.582 56.4609ZM149.254 33.6602C148.238 33.6602 147.036 33.2878 145.648 32.543C144.227 31.832 143.059 31.4766 142.145 31.4766C141.061 31.4766 140.232 32.069 139.656 33.2539C139.589 33.2878 139.504 33.3047 139.402 33.3047C139.064 33.3047 138.895 33.0339 138.895 32.4922C138.895 31.849 139.115 31.2734 139.555 30.7656C139.995 30.224 140.52 29.7839 141.129 29.4453C141.772 29.1068 142.348 28.9375 142.855 28.9375C143.837 28.9375 145.005 29.293 146.359 30.0039C147.747 30.7148 148.915 31.0703 149.863 31.0703C151.082 31.0703 151.945 30.4948 152.453 29.3438C152.521 29.3099 152.605 29.293 152.707 29.293C153.046 29.293 153.215 29.5638 153.215 30.1055C153.215 30.7148 152.995 31.2904 152.555 31.832C152.115 32.3737 151.59 32.8138 150.98 33.1523C150.371 33.4909 149.796 33.6602 149.254 33.6602ZM169.77 59.3555C167.738 59.3555 165.876 58.8477 164.184 57.832C162.491 56.8164 161.137 55.4453 160.121 53.7188C159.139 51.9922 158.648 50.0964 158.648 48.0312C158.648 45.9323 159.122 44.0365 160.07 42.3438C161.052 40.651 162.372 39.3138 164.031 38.332C165.69 37.3164 167.569 36.8086 169.668 36.8086C171.699 36.8086 173.544 37.3164 175.203 38.332C176.896 39.3477 178.233 40.7018 179.215 42.3945C180.23 44.0872 180.738 45.9661 180.738 48.0312C180.738 50.0964 180.247 51.9922 179.266 53.7188C178.284 55.4453 176.964 56.8164 175.305 57.832C173.68 58.8477 171.835 59.3555 169.77 59.3555ZM170.227 57.375C171.445 57.375 172.512 56.9857 173.426 56.207C174.34 55.4284 175.051 54.3789 175.559 53.0586C176.1 51.7383 176.371 50.2995 176.371 48.7422C176.371 46.9141 176.033 45.2552 175.355 43.7656C174.678 42.2422 173.781 41.0404 172.664 40.1602C171.581 39.2461 170.396 38.7891 169.109 38.7891C167.924 38.7891 166.858 39.1784 165.91 39.957C164.996 40.7018 164.285 41.7174 163.777 43.0039C163.27 44.2565 163.016 45.6784 163.016 47.2695C163.016 49.0977 163.337 50.7904 163.98 52.3477C164.658 53.8711 165.538 55.0898 166.621 56.0039C167.738 56.918 168.94 57.375 170.227 57.375ZM212.02 59.3047C211.816 59.3047 211.715 59.0169 211.715 58.4414V57.832C211.715 57.6628 211.647 57.5951 211.512 57.6289C209.65 58.6784 207.855 59.2031 206.129 59.2031C204.267 59.2031 202.574 58.7461 201.051 57.832C199.561 56.8841 198.376 55.6484 197.496 54.125C196.65 52.5677 196.227 50.875 196.227 49.0469C196.227 47.4219 196.531 45.8646 197.141 44.375C197.784 42.8854 198.63 41.5651 199.68 40.4141C200.763 39.2292 201.982 38.3151 203.336 37.6719C204.69 36.9948 206.095 36.6562 207.551 36.6562C209.007 36.6562 210.276 36.944 211.359 37.5195C211.596 37.5195 211.715 37.2148 211.715 36.6055V31.1211C211.715 29.9701 211.613 28.8867 211.41 27.8711C211.275 27.3294 210.411 27.0586 208.82 27.0586H208.363C208.16 27.0586 208.059 26.8724 208.059 26.5C208.059 25.9583 208.16 25.6875 208.363 25.6875C210.259 25.5182 211.749 25.2643 212.832 24.9258C213.949 24.5872 214.745 24.2487 215.219 23.9102L215.422 23.7578H215.523C215.659 23.7578 215.794 23.8594 215.93 24.0625C216.065 24.2318 216.15 24.401 216.184 24.5703C215.811 25.6875 215.625 27.1602 215.625 28.9883V51.8398C215.625 53.431 215.727 54.7174 215.93 55.6992C216.031 56.0378 216.319 56.2578 216.793 56.3594C217.301 56.4271 217.826 56.4948 218.367 56.5625L218.824 56.6133C218.926 56.6471 218.977 56.8503 218.977 57.2227C218.977 57.7305 218.875 57.9844 218.672 57.9844C217.555 58.0521 216.404 58.2383 215.219 58.543C214.034 58.8138 213.12 59.0339 212.477 59.2031L212.02 59.3047ZM208.059 56.7148C209.21 56.7148 210.107 56.4609 210.75 55.9531C211.393 55.4115 211.715 54.7005 211.715 53.8203V41.7344C211.715 41.0234 211.326 40.3633 210.547 39.7539C209.802 39.1107 208.583 38.7891 206.891 38.7891C205.604 38.7891 204.487 39.1953 203.539 40.0078C202.591 40.8203 201.863 41.9036 201.355 43.2578C200.848 44.5781 200.594 46.0169 200.594 47.5742C200.594 49.1992 200.882 50.7057 201.457 52.0938C202.066 53.4818 202.93 54.599 204.047 55.4453C205.164 56.2917 206.501 56.7148 208.059 56.7148ZM226.898 59.3555C225.341 59.3555 224.055 58.9492 223.039 58.1367C222.023 57.2904 221.516 56.0378 221.516 54.3789C221.516 52.3477 222.836 50.6549 225.477 49.3008C226.628 48.7253 227.762 48.2682 228.879 47.9297C230.03 47.5911 231.181 47.2018 232.332 46.7617C232.637 46.6602 232.789 46.4062 232.789 46V42.1914C232.789 41.1081 232.451 40.2786 231.773 39.7031C231.096 39.0938 230.284 38.7891 229.336 38.7891C228.32 38.7891 227.474 39.1445 226.797 39.8555C226.12 40.5326 225.781 41.4297 225.781 42.5469C225.781 43.7318 225.087 44.3242 223.699 44.3242C222.717 44.3242 222.057 44.0026 221.719 43.3594C221.719 42.6484 222.007 41.9206 222.582 41.1758C223.191 40.3971 223.97 39.6862 224.918 39.043C225.866 38.3997 226.898 37.875 228.016 37.4688C229.167 37.0625 230.301 36.8594 231.418 36.8594C233.28 36.8594 234.617 37.3164 235.43 38.2305C236.242 39.1107 236.648 40.5495 236.648 42.5469V54.2773C236.648 54.9883 236.835 55.5807 237.207 56.0547C237.579 56.5286 238.087 56.7656 238.73 56.7656C239.171 56.7656 239.763 56.5286 240.508 56.0547C240.643 56.0547 240.711 56.1901 240.711 56.4609C240.711 56.901 240.626 57.2565 240.457 57.5273C239.069 58.7122 237.884 59.3047 236.902 59.3047C236.124 59.3047 235.379 58.9831 234.668 58.3398C233.957 57.6966 233.466 57.0195 233.195 56.3086C233.026 56.444 232.806 56.6302 232.535 56.8672C232.298 57.0703 232.095 57.2396 231.926 57.375C231.215 57.9167 230.436 58.3906 229.59 58.7969C228.777 59.1693 227.88 59.3555 226.898 59.3555ZM228.828 56.4609C229.776 56.4609 230.673 56.1901 231.52 55.6484C232.366 55.1068 232.789 54.5312 232.789 53.9219V48.6914C231.909 49.0299 231.062 49.3346 230.25 49.6055C229.471 49.8763 228.845 50.0964 228.371 50.2656C227.762 50.5026 227.169 50.9258 226.594 51.5352C226.052 52.1445 225.781 52.8385 225.781 53.6172C225.781 54.6328 226.086 55.3607 226.695 55.8008C227.339 56.2409 228.049 56.4609 228.828 56.4609ZM278.086 59.2031C276.326 59.2031 273.583 59.1523 269.859 59.0508C267.997 58.9831 266.305 58.9323 264.781 58.8984C263.258 58.8646 261.921 58.8646 260.77 58.8984L254.625 59.0508C254.523 58.9492 254.473 58.6784 254.473 58.2383C254.473 57.7982 254.523 57.5781 254.625 57.5781C254.964 57.5781 255.37 57.5273 255.844 57.4258C256.352 57.3242 256.826 57.2057 257.266 57.0703C257.74 56.901 258.027 56.7148 258.129 56.5117C258.366 56.1393 258.484 54.5482 258.484 51.7383V32.543C258.484 30.3086 258.366 28.7682 258.129 27.9219C258.061 27.7188 257.807 27.5495 257.367 27.4141C256.927 27.2448 256.453 27.1094 255.945 27.0078C255.438 26.9062 255.031 26.8555 254.727 26.8555C254.591 26.8555 254.523 26.6354 254.523 26.1953C254.523 25.7891 254.591 25.5182 254.727 25.3828C255.031 25.3828 255.539 25.4167 256.25 25.4844C256.995 25.5182 257.79 25.569 258.637 25.6367C259.483 25.6706 260.211 25.6875 260.82 25.6875C261.904 25.6875 262.987 25.6536 264.07 25.5859C265.154 25.4844 266.034 25.4167 266.711 25.3828C266.779 25.6536 266.812 25.9076 266.812 26.1445C266.812 26.6185 266.745 26.8555 266.609 26.8555C266.406 26.8555 266.051 26.9232 265.543 27.0586C265.035 27.1602 264.561 27.2956 264.121 27.4648C263.681 27.6003 263.427 27.7526 263.359 27.9219C263.055 29.0729 262.902 30.6471 262.902 32.6445V51.7891C262.902 53.5833 263.055 55.0729 263.359 56.2578C263.461 56.5964 264.612 56.7656 266.812 56.7656H269.25C272.365 56.7656 274.497 56.4779 275.648 55.9023C276.156 55.6315 276.715 55.0391 277.324 54.125C277.967 53.1771 278.475 52.0599 278.848 50.7734C278.915 50.5703 279.152 50.4688 279.559 50.4688C280.202 50.4688 280.625 50.5703 280.828 50.7734C280.727 51.0443 280.557 51.4674 280.32 52.043C280.117 52.5846 279.914 53.1432 279.711 53.7188C279.508 54.2943 279.339 54.7852 279.203 55.1914C279 55.8008 278.78 56.4948 278.543 57.2734C278.306 58.0521 278.154 58.6953 278.086 59.2031ZM293.625 59.3047C291.763 59.3047 290.053 58.8138 288.496 57.832C286.939 56.8503 285.686 55.5469 284.738 53.9219C283.824 52.263 283.367 50.418 283.367 48.3867C283.367 46.0169 283.807 43.9688 284.688 42.2422C285.568 40.5156 286.77 39.1953 288.293 38.2812C289.816 37.3333 291.526 36.8594 293.422 36.8594C294.979 36.8594 296.35 37.1641 297.535 37.7734C298.72 38.349 299.634 39.0938 300.277 40.0078C300.887 40.9557 301.327 41.9206 301.598 42.9023C301.902 43.8503 302.055 44.7982 302.055 45.7461C302.055 46.4232 301.953 46.8464 301.75 47.0156C301.547 47.151 301.158 47.2188 300.582 47.2188H287.785C287.514 47.2188 287.379 47.3034 287.379 47.4727C287.379 48.8945 287.667 50.2656 288.242 51.5859C288.818 52.8724 289.664 53.9388 290.781 54.7852C291.898 55.6315 293.27 56.0547 294.895 56.0547C296.316 56.0547 297.501 55.8516 298.449 55.4453C299.431 55.0052 300.142 54.6159 300.582 54.2773L300.938 54.0234C301.141 54.0234 301.242 54.2435 301.242 54.6836C301.242 54.9206 301.141 55.2253 300.938 55.5977C300.26 56.5456 299.262 57.4089 297.941 58.1875C296.621 58.9323 295.182 59.3047 293.625 59.3047ZM287.785 45.0859H297.688C297.857 45.0859 297.941 44.9167 297.941 44.5781C297.941 43.8333 297.738 43.0208 297.332 42.1406C296.96 41.2266 296.384 40.431 295.605 39.7539C294.827 39.0768 293.845 38.7383 292.66 38.7383C291.577 38.7383 290.646 39.1107 289.867 39.8555C289.089 40.5664 288.496 41.3958 288.09 42.3438C287.684 43.2578 287.48 44.0534 287.48 44.7305C287.48 44.9674 287.582 45.0859 287.785 45.0859ZM305.152 59.1523C305.017 59.0169 304.949 58.7292 304.949 58.2891C304.949 57.8828 305.017 57.6797 305.152 57.6797C305.423 57.6797 305.796 57.6289 306.27 57.5273C306.743 57.4258 307.184 57.2904 307.59 57.1211C307.996 56.9518 308.216 56.7995 308.25 56.6641C308.385 56.1901 308.47 55.6484 308.504 55.0391C308.572 54.4297 308.605 53.7865 308.605 53.1094V43.5117C308.605 42.2253 308.368 41.3112 307.895 40.7695C307.556 40.3294 307.15 40.0586 306.676 39.957C306.202 39.8216 305.796 39.7539 305.457 39.7539C305.118 39.7201 304.949 39.6693 304.949 39.6016C304.949 38.7891 305.051 38.3659 305.254 38.332C307.048 38.0612 308.419 37.8411 309.367 37.6719C310.315 37.4688 311.161 37.2826 311.906 37.1133L312.516 36.9609C312.651 36.9271 312.736 37.0625 312.77 37.3672C312.803 37.6719 312.803 37.8919 312.77 38.0273C312.702 38.7044 312.634 39.3477 312.566 39.957C312.533 40.5664 312.516 41.1419 312.516 41.6836V52.1445C312.516 53.1263 312.549 53.9896 312.617 54.7344C312.685 55.4792 312.786 56.1224 312.922 56.6641C312.99 56.7995 313.227 56.9518 313.633 57.1211C314.039 57.2904 314.479 57.4258 314.953 57.5273C315.427 57.6289 315.766 57.6797 315.969 57.6797C316.07 57.6797 316.138 57.8828 316.172 58.2891C316.206 58.6953 316.189 58.9831 316.121 59.1523L310.688 58.8984L305.152 59.1523ZM310.18 31.4258C309.503 31.4258 308.91 31.1719 308.402 30.6641C307.895 30.1562 307.641 29.5638 307.641 28.8867C307.641 28.1758 307.895 27.5833 308.402 27.1094C308.91 26.6016 309.503 26.3477 310.18 26.3477C310.891 26.3477 311.483 26.6016 311.957 27.1094C312.465 27.5833 312.719 28.1758 312.719 28.8867C312.719 29.5638 312.465 30.1562 311.957 30.6641C311.483 31.1719 310.891 31.4258 310.18 31.4258ZM318.609 59.1523C318.474 59.0169 318.406 58.7292 318.406 58.2891C318.406 57.8828 318.474 57.6797 318.609 57.6797C318.88 57.6797 319.253 57.6289 319.727 57.5273C320.201 57.4258 320.641 57.2904 321.047 57.1211C321.453 56.9518 321.673 56.7995 321.707 56.6641C321.842 56.1901 321.927 55.6484 321.961 55.0391C322.029 54.4297 322.062 53.7865 322.062 53.1094V31.1211C322.062 29.9701 321.961 28.8867 321.758 27.8711C321.622 27.3294 320.759 27.0586 319.168 27.0586H318.711C318.508 27.0586 318.406 26.8724 318.406 26.5C318.406 25.9583 318.508 25.6875 318.711 25.6875C320.742 25.4505 322.249 25.1797 323.23 24.875C324.212 24.5703 324.889 24.2995 325.262 24.0625L325.77 23.7578H325.871C326.007 23.7578 326.142 23.8594 326.277 24.0625C326.413 24.2318 326.497 24.401 326.531 24.5703C326.159 25.6875 325.973 27.1602 325.973 28.9883V52.1445C325.973 53.1263 326.007 53.9896 326.074 54.7344C326.142 55.4792 326.243 56.1224 326.379 56.6641C326.447 56.7995 326.684 56.9518 327.09 57.1211C327.496 57.2904 327.936 57.4258 328.41 57.5273C328.884 57.6289 329.223 57.6797 329.426 57.6797C329.527 57.6797 329.595 57.8828 329.629 58.2891C329.663 58.6953 329.646 58.9831 329.578 59.1523L324.145 58.8984L318.609 59.1523ZM337.754 59.3555C336.197 59.3555 334.91 58.9492 333.895 58.1367C332.879 57.2904 332.371 56.0378 332.371 54.3789C332.371 52.3477 333.691 50.6549 336.332 49.3008C337.483 48.7253 338.617 48.2682 339.734 47.9297C340.885 47.5911 342.036 47.2018 343.188 46.7617C343.492 46.6602 343.645 46.4062 343.645 46V42.1914C343.645 41.1081 343.306 40.2786 342.629 39.7031C341.952 39.0938 341.139 38.7891 340.191 38.7891C339.176 38.7891 338.329 39.1445 337.652 39.8555C336.975 40.5326 336.637 41.4297 336.637 42.5469C336.637 43.7318 335.943 44.3242 334.555 44.3242C333.573 44.3242 332.913 44.0026 332.574 43.3594C332.574 42.6484 332.862 41.9206 333.438 41.1758C334.047 40.3971 334.826 39.6862 335.773 39.043C336.721 38.3997 337.754 37.875 338.871 37.4688C340.022 37.0625 341.156 36.8594 342.273 36.8594C344.135 36.8594 345.473 37.3164 346.285 38.2305C347.098 39.1107 347.504 40.5495 347.504 42.5469V54.2773C347.504 54.9883 347.69 55.5807 348.062 56.0547C348.435 56.5286 348.943 56.7656 349.586 56.7656C350.026 56.7656 350.618 56.5286 351.363 56.0547C351.499 56.0547 351.566 56.1901 351.566 56.4609C351.566 56.901 351.482 57.2565 351.312 57.5273C349.924 58.7122 348.74 59.3047 347.758 59.3047C346.979 59.3047 346.234 58.9831 345.523 58.3398C344.812 57.6966 344.322 57.0195 344.051 56.3086C343.882 56.444 343.661 56.6302 343.391 56.8672C343.154 57.0703 342.951 57.2396 342.781 57.375C342.07 57.9167 341.292 58.3906 340.445 58.7969C339.633 59.1693 338.736 59.3555 337.754 59.3555ZM339.684 56.4609C340.632 56.4609 341.529 56.1901 342.375 55.6484C343.221 55.1068 343.645 54.5312 343.645 53.9219V48.6914C342.764 49.0299 341.918 49.3346 341.105 49.6055C340.327 49.8763 339.701 50.0964 339.227 50.2656C338.617 50.5026 338.025 50.9258 337.449 51.5352C336.908 52.1445 336.637 52.8385 336.637 53.6172C336.637 54.6328 336.941 55.3607 337.551 55.8008C338.194 56.2409 338.905 56.4609 339.684 56.4609Z" fill="white"/>
</g>
<defs>
<clipPath id="clip0_9_9">
<rect width="432" height="87" fill="white"/>
</clipPath>
</defs>
</svg>
